<mxfile host="65bd71144e">
    <diagram id="2hrEDhwtY0BgSdLxk32c" name="Page-1">
        <mxGraphModel dx="5509" dy="782" grid="1" gridSize="10" guides="1" tooltips="1" connect="1" arrows="1" fold="1" page="0" pageScale="1" pageWidth="1169" pageHeight="827" math="0" shadow="0">
            <root>
                <mxCell id="0"/>
                <mxCell id="1" parent="0"/>
                <mxCell id="21" value="constantly track detailed stats of each position / trade" style="rounded=1;whiteSpace=wrap;html=1;absoluteArcSize=1;arcSize=14;strokeWidth=2;fontColor=#66FFFF;" parent="1" vertex="1">
                    <mxGeometry x="-2340" y="-10" width="100" height="100" as="geometry"/>
                </mxCell>
                <mxCell id="22" value="Open trade workflow" style="rounded=1;whiteSpace=wrap;html=1;" parent="1" vertex="1">
                    <mxGeometry x="-2103" y="-120" width="180" height="60" as="geometry"/>
                </mxCell>
                <mxCell id="23" value="Constantly adjust orders (stop-loss, ...)" style="rounded=1;whiteSpace=wrap;html=1;absoluteArcSize=1;arcSize=14;strokeWidth=2;fontColor=#66FFFF;" parent="1" vertex="1">
                    <mxGeometry x="-2170" y="-10" width="100" height="100" as="geometry"/>
                </mxCell>
                <mxCell id="24" value="Live run portfolio tracker and manager" style="rounded=1;whiteSpace=wrap;html=1;absoluteArcSize=1;arcSize=14;strokeWidth=2;fontColor=#66FFFF;" parent="1" vertex="1">
                    <mxGeometry x="-2000" y="-10" width="100" height="100" as="geometry"/>
                </mxCell>
                <mxCell id="25" value="Keep track of clesed trades and their statsin csv file after closing each trade" style="rounded=1;whiteSpace=wrap;html=1;absoluteArcSize=1;arcSize=14;strokeWidth=2;fontColor=#66FFFF;" parent="1" vertex="1">
                    <mxGeometry x="-1830" y="-10" width="100" height="100" as="geometry"/>
                </mxCell>
                <mxCell id="43" style="edgeStyle=none;html=1;exitX=0.5;exitY=1;exitDx=0;exitDy=0;entryX=0.5;entryY=0;entryDx=0;entryDy=0;" parent="1" source="38" target="42" edge="1">
                    <mxGeometry relative="1" as="geometry"/>
                </mxCell>
                <mxCell id="38" value="&lt;font color=&quot;#007fff&quot;&gt;Start&lt;/font&gt;" style="ellipse;whiteSpace=wrap;html=1;" parent="1" vertex="1">
                    <mxGeometry x="-1507.56" y="-162.5" width="120" height="80" as="geometry"/>
                </mxCell>
                <mxCell id="39" value="&lt;h1&gt;&lt;span style=&quot;background-color: initial;&quot;&gt;Profile Config&lt;/span&gt;&lt;/h1&gt;&lt;h1&gt;&lt;span style=&quot;background-color: initial; font-size: 12px; font-weight: normal;&quot;&gt;Defines which action profile should bot work on&lt;/span&gt;&lt;br&gt;&lt;/h1&gt;" style="text;html=1;strokeColor=none;fillColor=none;spacing=5;spacingTop=-20;whiteSpace=wrap;overflow=hidden;rounded=0;" parent="1" vertex="1">
                    <mxGeometry x="-1280" y="440" width="180" height="130" as="geometry"/>
                </mxCell>
                <mxCell id="40" value="&lt;h1&gt;&lt;span style=&quot;background-color: initial;&quot;&gt;Strategies Config&lt;/span&gt;&lt;/h1&gt;&lt;h1&gt;&lt;span style=&quot;background-color: initial; font-size: 12px; font-weight: normal;&quot;&gt;Defines strategies&lt;/span&gt;&lt;br&gt;&lt;/h1&gt;" style="text;html=1;strokeColor=none;fillColor=none;spacing=5;spacingTop=-20;whiteSpace=wrap;overflow=hidden;rounded=0;" parent="1" vertex="1">
                    <mxGeometry x="-1280" y="590" width="180" height="130" as="geometry"/>
                </mxCell>
                <mxCell id="41" value="&lt;h1&gt;&lt;span style=&quot;background-color: initial;&quot;&gt;Constants Config&lt;/span&gt;&lt;/h1&gt;&lt;h1&gt;&lt;span style=&quot;background-color: initial; font-size: 12px; font-weight: normal;&quot;&gt;Defines technical and development configs&lt;/span&gt;&lt;br&gt;&lt;/h1&gt;" style="text;html=1;strokeColor=none;fillColor=none;spacing=5;spacingTop=-20;whiteSpace=wrap;overflow=hidden;rounded=0;" parent="1" vertex="1">
                    <mxGeometry x="-1280" y="740" width="160" height="140" as="geometry"/>
                </mxCell>
                <mxCell id="42" value="bot.py" style="swimlane;whiteSpace=wrap;html=1;rounded=1;dashed=1;dashPattern=12 12;" parent="1" vertex="1">
                    <mxGeometry x="-1647.56" y="-52.5" width="400" height="370" as="geometry">
                        <mxRectangle x="-740" y="-70" width="80" height="30" as="alternateBounds"/>
                    </mxGeometry>
                </mxCell>
                <mxCell id="54" style="edgeStyle=orthogonalEdgeStyle;html=1;exitX=0.5;exitY=1;exitDx=0;exitDy=0;entryX=0.5;entryY=0;entryDx=0;entryDy=0;entryPerimeter=0;fontColor=#66CC00;" parent="42" source="44" target="45" edge="1">
                    <mxGeometry relative="1" as="geometry">
                        <mxPoint x="200" y="120" as="sourcePoint"/>
                    </mxGeometry>
                </mxCell>
                <mxCell id="44" value="&lt;font color=&quot;#66cc00&quot;&gt;Read Profile config&lt;/font&gt;" style="rounded=1;whiteSpace=wrap;html=1;absoluteArcSize=1;arcSize=14;strokeWidth=2;" parent="42" vertex="1">
                    <mxGeometry x="160" y="40" width="80" height="60" as="geometry"/>
                </mxCell>
                <mxCell id="45" value="Which Profile?" style="strokeWidth=2;html=1;shape=mxgraph.flowchart.decision;whiteSpace=wrap;fontColor=#66CC00;" parent="42" vertex="1">
                    <mxGeometry x="150" y="130" width="100" height="100" as="geometry"/>
                </mxCell>
                <mxCell id="46" value="&lt;font color=&quot;#66cc00&quot;&gt;Live&lt;/font&gt;" style="rounded=1;whiteSpace=wrap;html=1;absoluteArcSize=1;arcSize=14;strokeWidth=2;" parent="42" vertex="1">
                    <mxGeometry x="25" y="250" width="80" height="60" as="geometry"/>
                </mxCell>
                <mxCell id="53" style="edgeStyle=orthogonalEdgeStyle;html=1;exitX=0;exitY=0.5;exitDx=0;exitDy=0;exitPerimeter=0;entryX=0.5;entryY=0;entryDx=0;entryDy=0;fontColor=#66CC00;" parent="42" source="45" target="46" edge="1">
                    <mxGeometry relative="1" as="geometry"/>
                </mxCell>
                <mxCell id="47" value="&lt;font color=&quot;#66cc00&quot;&gt;Back-test&lt;/font&gt;" style="rounded=1;whiteSpace=wrap;html=1;absoluteArcSize=1;arcSize=14;strokeWidth=2;" parent="42" vertex="1">
                    <mxGeometry x="115" y="250" width="80" height="60" as="geometry"/>
                </mxCell>
                <mxCell id="52" style="edgeStyle=orthogonalEdgeStyle;html=1;exitX=0;exitY=0.5;exitDx=0;exitDy=0;exitPerimeter=0;entryX=0.5;entryY=0;entryDx=0;entryDy=0;fontColor=#66CC00;" parent="42" source="45" target="47" edge="1">
                    <mxGeometry relative="1" as="geometry"/>
                </mxCell>
                <mxCell id="48" value="&lt;font color=&quot;#66cc00&quot;&gt;Forward-test&lt;/font&gt;" style="rounded=1;whiteSpace=wrap;html=1;absoluteArcSize=1;arcSize=14;strokeWidth=2;" parent="42" vertex="1">
                    <mxGeometry x="205" y="250" width="80" height="60" as="geometry"/>
                </mxCell>
                <mxCell id="51" style="edgeStyle=orthogonalEdgeStyle;html=1;exitX=1;exitY=0.5;exitDx=0;exitDy=0;exitPerimeter=0;entryX=0.5;entryY=0;entryDx=0;entryDy=0;fontColor=#66CC00;" parent="42" source="45" target="48" edge="1">
                    <mxGeometry relative="1" as="geometry"/>
                </mxCell>
                <mxCell id="49" value="&lt;font color=&quot;#66cc00&quot;&gt;Setup-test&lt;/font&gt;" style="rounded=1;whiteSpace=wrap;html=1;absoluteArcSize=1;arcSize=14;strokeWidth=2;" parent="42" vertex="1">
                    <mxGeometry x="295" y="250" width="80" height="60" as="geometry"/>
                </mxCell>
                <mxCell id="50" style="edgeStyle=orthogonalEdgeStyle;html=1;exitX=1;exitY=0.5;exitDx=0;exitDy=0;exitPerimeter=0;entryX=0.5;entryY=0;entryDx=0;entryDy=0;fontColor=#66CC00;" parent="42" source="45" target="49" edge="1">
                    <mxGeometry relative="1" as="geometry"/>
                </mxCell>
                <mxCell id="72" value="&lt;font color=&quot;#66cc00&quot;&gt;Run logger&lt;/font&gt;" style="rounded=1;whiteSpace=wrap;html=1;absoluteArcSize=1;arcSize=14;strokeWidth=2;" parent="42" vertex="1">
                    <mxGeometry x="70" y="40" width="80" height="60" as="geometry"/>
                </mxCell>
                <mxCell id="55" value="profile.live.py" style="swimlane;whiteSpace=wrap;html=1;rounded=1;dashed=1;dashPattern=12 12;" parent="1" vertex="1">
                    <mxGeometry x="-1780" y="345" width="420" height="915" as="geometry">
                        <mxRectangle x="-740" y="-70" width="80" height="30" as="alternateBounds"/>
                    </mxGeometry>
                </mxCell>
                <mxCell id="87" style="edgeStyle=orthogonalEdgeStyle;html=1;exitX=0.5;exitY=1;exitDx=0;exitDy=0;entryX=0.5;entryY=0;entryDx=0;entryDy=0;fontColor=#66CC00;" parent="55" source="57" target="206" edge="1">
                    <mxGeometry relative="1" as="geometry">
                        <mxPoint x="332.43000000000006" y="172.5" as="targetPoint"/>
                    </mxGeometry>
                </mxCell>
                <mxCell id="57" value="&lt;font color=&quot;#66cc00&quot;&gt;Read Strategies Config&lt;/font&gt;" style="rounded=1;whiteSpace=wrap;html=1;absoluteArcSize=1;arcSize=14;strokeWidth=2;" parent="55" vertex="1">
                    <mxGeometry x="20.000000000000057" y="35" width="80" height="60" as="geometry"/>
                </mxCell>
                <mxCell id="84" style="edgeStyle=orthogonalEdgeStyle;html=1;exitX=0.5;exitY=1;exitDx=0;exitDy=0;entryX=0.5;entryY=0;entryDx=0;entryDy=0;fontColor=#66CC00;" parent="55" source="67" target="83" edge="1">
                    <mxGeometry relative="1" as="geometry"/>
                </mxCell>
                <mxCell id="67" value="&lt;font color=&quot;#66cc00&quot;&gt;Run Portfolio Manager&lt;/font&gt;" style="rounded=1;whiteSpace=wrap;html=1;absoluteArcSize=1;arcSize=14;strokeWidth=2;" parent="55" vertex="1">
                    <mxGeometry x="280.00000000000006" y="585" width="80" height="60" as="geometry"/>
                </mxCell>
                <mxCell id="85" style="edgeStyle=orthogonalEdgeStyle;html=1;exitX=0.5;exitY=1;exitDx=0;exitDy=0;entryX=0.5;entryY=0;entryDx=0;entryDy=0;fontColor=#66CC00;" parent="55" source="70" target="74" edge="1">
                    <mxGeometry relative="1" as="geometry"/>
                </mxCell>
                <mxCell id="70" value="&lt;font color=&quot;#66cc00&quot;&gt;Call data_processor.py to start fetching market data&lt;/font&gt;" style="rounded=1;whiteSpace=wrap;html=1;absoluteArcSize=1;arcSize=14;strokeWidth=2;" parent="55" vertex="1">
                    <mxGeometry x="160.00000000000006" y="315" width="80" height="60" as="geometry"/>
                </mxCell>
                <mxCell id="77" style="edgeStyle=orthogonalEdgeStyle;html=1;exitX=0.5;exitY=1;exitDx=0;exitDy=0;entryX=0.5;entryY=0;entryDx=0;entryDy=0;fontColor=#66CC00;" parent="55" source="74" target="76" edge="1">
                    <mxGeometry relative="1" as="geometry"/>
                </mxCell>
                <mxCell id="76" value="Is market in valid condition?" style="rhombus;whiteSpace=wrap;html=1;rounded=0;shadow=0;glass=0;sketch=0;fillStyle=auto;fontColor=#66CC00;gradientColor=none;" parent="55" vertex="1">
                    <mxGeometry x="160.00000000000006" y="475" width="80" height="80" as="geometry"/>
                </mxCell>
                <mxCell id="79" value="&lt;font color=&quot;#66cc00&quot;&gt;Check for open-positions&lt;/font&gt;" style="rounded=1;whiteSpace=wrap;html=1;absoluteArcSize=1;arcSize=14;strokeWidth=2;" parent="55" vertex="1">
                    <mxGeometry x="280.00000000000006" y="35" width="80" height="60" as="geometry"/>
                </mxCell>
                <mxCell id="213" value="yes" style="edgeStyle=orthogonalEdgeStyle;html=1;exitX=0.5;exitY=1;exitDx=0;exitDy=0;entryX=0.5;entryY=0;entryDx=0;entryDy=0;fontColor=#66CC00;" parent="55" source="83" target="129" edge="1">
                    <mxGeometry x="-0.2" y="-10" relative="1" as="geometry">
                        <mxPoint x="10" y="10" as="offset"/>
                    </mxGeometry>
                </mxCell>
                <mxCell id="83" value="Does portfolio manager let engage assets?" style="rhombus;whiteSpace=wrap;html=1;rounded=0;shadow=0;glass=0;sketch=0;fillStyle=auto;fontColor=#66CC00;gradientColor=none;" parent="55" vertex="1">
                    <mxGeometry x="280.00000000000006" y="665" width="80" height="80" as="geometry"/>
                </mxCell>
                <mxCell id="82" style="edgeStyle=orthogonalEdgeStyle;html=1;exitX=0.5;exitY=1;exitDx=0;exitDy=0;fontColor=#66CC00;entryX=0.5;entryY=0;entryDx=0;entryDy=0;" parent="55" source="79" target="67" edge="1">
                    <mxGeometry relative="1" as="geometry">
                        <mxPoint x="52.440000000000055" y="142.5" as="targetPoint"/>
                    </mxGeometry>
                </mxCell>
                <mxCell id="129" value="Active Phase" style="swimlane;horizontal=0;whiteSpace=wrap;html=1;rounded=0;shadow=0;glass=0;sketch=0;fillStyle=auto;fontColor=#66CC00;gradientColor=none;dashed=1;" parent="55" vertex="1">
                    <mxGeometry x="30" y="795" width="250" height="100" as="geometry">
                        <mxRectangle x="132.44000000000005" y="382.5" width="40" height="110" as="alternateBounds"/>
                    </mxGeometry>
                </mxCell>
                <mxCell id="97" value="&lt;font color=&quot;#66cc00&quot;&gt;Start signals engine&lt;/font&gt;" style="rounded=1;whiteSpace=wrap;html=1;absoluteArcSize=1;arcSize=14;strokeWidth=2;" parent="129" vertex="1">
                    <mxGeometry x="35" y="20" width="80" height="60" as="geometry"/>
                </mxCell>
                <mxCell id="126" value="&lt;font color=&quot;#66cc00&quot;&gt;Start order engine&lt;/font&gt;" style="rounded=1;whiteSpace=wrap;html=1;absoluteArcSize=1;arcSize=14;strokeWidth=2;" parent="129" vertex="1">
                    <mxGeometry x="125" y="20" width="80" height="60" as="geometry"/>
                </mxCell>
                <mxCell id="130" style="edgeStyle=orthogonalEdgeStyle;html=1;exitX=0.5;exitY=1;exitDx=0;exitDy=0;fontColor=#66CC00;entryX=1;entryY=0;entryDx=0;entryDy=0;" parent="55" source="79" target="129" edge="1">
                    <mxGeometry relative="1" as="geometry">
                        <mxPoint x="162.44000000000005" y="362.5" as="targetPoint"/>
                        <Array as="points">
                            <mxPoint x="320" y="145"/>
                            <mxPoint x="380" y="145"/>
                            <mxPoint x="380" y="785"/>
                            <mxPoint x="280" y="785"/>
                        </Array>
                    </mxGeometry>
                </mxCell>
                <mxCell id="206" value="&lt;font color=&quot;#66cc00&quot;&gt;Run the Scheduler.py to declare working times&lt;/font&gt;" style="rounded=1;whiteSpace=wrap;html=1;absoluteArcSize=1;arcSize=14;strokeWidth=2;" parent="55" vertex="1">
                    <mxGeometry x="20" y="115" width="80" height="60" as="geometry"/>
                </mxCell>
                <mxCell id="211" value="yes" style="edgeStyle=orthogonalEdgeStyle;html=1;exitX=1;exitY=1;exitDx=0;exitDy=0;entryX=0.5;entryY=0;entryDx=0;entryDy=0;fontColor=#66CC00;" parent="55" source="207" target="70" edge="1">
                    <mxGeometry x="-0.4444" relative="1" as="geometry">
                        <Array as="points">
                            <mxPoint x="80" y="275"/>
                            <mxPoint x="200" y="275"/>
                        </Array>
                        <mxPoint as="offset"/>
                    </mxGeometry>
                </mxCell>
                <mxCell id="207" value="Is now in working time of any of strategies?" style="rhombus;whiteSpace=wrap;html=1;rounded=0;shadow=0;glass=0;sketch=0;fillStyle=auto;fontColor=#66CC00;gradientColor=none;" parent="55" vertex="1">
                    <mxGeometry x="20" y="195" width="80" height="80" as="geometry"/>
                </mxCell>
                <mxCell id="205" style="edgeStyle=orthogonalEdgeStyle;html=1;exitX=0.5;exitY=1;exitDx=0;exitDy=0;entryX=0.5;entryY=0;entryDx=0;entryDy=0;fontColor=#66CC00;" parent="55" source="206" target="207" edge="1">
                    <mxGeometry relative="1" as="geometry"/>
                </mxCell>
                <mxCell id="74" value="&lt;font color=&quot;#66cc00&quot;&gt;Run market_validator.py to check market condition&lt;/font&gt;" style="rounded=1;whiteSpace=wrap;html=1;absoluteArcSize=1;arcSize=14;strokeWidth=2;" parent="55" vertex="1">
                    <mxGeometry x="160.00000000000006" y="395" width="80" height="60" as="geometry"/>
                </mxCell>
                <mxCell id="222" value="&lt;font color=&quot;#66cc00&quot;&gt;Scedule tasks to be performed on end of work time&lt;/font&gt;" style="rounded=1;whiteSpace=wrap;html=1;absoluteArcSize=1;arcSize=14;strokeWidth=2;" parent="55" vertex="1">
                    <mxGeometry x="180" y="35" width="80" height="60" as="geometry"/>
                </mxCell>
                <mxCell id="78" style="edgeStyle=orthogonalEdgeStyle;html=1;exitX=0.5;exitY=1;exitDx=0;exitDy=0;entryX=0.5;entryY=0;entryDx=0;entryDy=0;fontColor=#66CC00;" parent="1" source="46" target="55" edge="1">
                    <mxGeometry relative="1" as="geometry"/>
                </mxCell>
                <mxCell id="101" value="data_processor.py" style="swimlane;whiteSpace=wrap;html=1;rounded=1;dashed=1;dashPattern=12 12;" parent="1" vertex="1">
                    <mxGeometry x="-2080" y="770" width="270" height="240" as="geometry">
                        <mxRectangle x="-1050" y="500" width="80" height="30" as="alternateBounds"/>
                    </mxGeometry>
                </mxCell>
                <mxCell id="176" style="edgeStyle=orthogonalEdgeStyle;html=1;exitX=0.5;exitY=1;exitDx=0;exitDy=0;entryX=0.5;entryY=0;entryDx=0;entryDy=0;fontColor=#66CC00;" parent="101" source="111" target="95" edge="1">
                    <mxGeometry relative="1" as="geometry"/>
                </mxCell>
                <mxCell id="111" value="&lt;font color=&quot;#66cc00&quot;&gt;Start fetching market data&lt;/font&gt;" style="rounded=1;whiteSpace=wrap;html=1;absoluteArcSize=1;arcSize=14;strokeWidth=2;" parent="101" vertex="1">
                    <mxGeometry x="150" y="37.5" width="80" height="60" as="geometry"/>
                </mxCell>
                <mxCell id="95" value="&lt;font color=&quot;#66cc00&quot;&gt;Send event on candle close for each timeframe&lt;/font&gt;" style="rounded=1;whiteSpace=wrap;html=1;absoluteArcSize=1;arcSize=14;strokeWidth=2;" parent="101" vertex="1">
                    <mxGeometry x="150" y="120" width="80" height="60" as="geometry"/>
                </mxCell>
                <mxCell id="194" style="edgeStyle=orthogonalEdgeStyle;html=1;exitX=0.5;exitY=1;exitDx=0;exitDy=0;entryX=0.5;entryY=0;entryDx=0;entryDy=0;fontColor=#66CC00;" parent="101" source="153" target="193" edge="1">
                    <mxGeometry relative="1" as="geometry"/>
                </mxCell>
                <mxCell id="153" value="&lt;font color=&quot;#66cc00&quot;&gt;constantly fetching Open Positions&lt;/font&gt;" style="rounded=1;whiteSpace=wrap;html=1;absoluteArcSize=1;arcSize=14;strokeWidth=2;" parent="101" vertex="1">
                    <mxGeometry x="50" y="37.5" width="80" height="60" as="geometry"/>
                </mxCell>
                <mxCell id="193" value="&lt;font color=&quot;#66cc00&quot;&gt;Send open-positions event&lt;/font&gt;" style="rounded=1;whiteSpace=wrap;html=1;absoluteArcSize=1;arcSize=14;strokeWidth=2;" parent="101" vertex="1">
                    <mxGeometry x="50" y="120" width="80" height="60" as="geometry"/>
                </mxCell>
                <mxCell id="138" value="signals_engine.py" style="swimlane;whiteSpace=wrap;html=1;rounded=1;dashed=1;dashPattern=12 12;" parent="1" vertex="1">
                    <mxGeometry x="-2010" y="1340" width="380" height="440" as="geometry">
                        <mxRectangle x="-740" y="-70" width="80" height="30" as="alternateBounds"/>
                    </mxGeometry>
                </mxCell>
                <mxCell id="165" style="edgeStyle=orthogonalEdgeStyle;html=1;exitX=0.5;exitY=1;exitDx=0;exitDy=0;entryX=0.5;entryY=0;entryDx=0;entryDy=0;fontColor=#66CC00;" parent="138" source="89" target="96" edge="1">
                    <mxGeometry relative="1" as="geometry"/>
                </mxCell>
                <mxCell id="89" value="&lt;font color=&quot;#66cc00&quot;&gt;get selected setups&lt;/font&gt;" style="rounded=1;whiteSpace=wrap;html=1;absoluteArcSize=1;arcSize=14;strokeWidth=2;" parent="138" vertex="1">
                    <mxGeometry x="240" y="40" width="80" height="60" as="geometry"/>
                </mxCell>
                <mxCell id="94" value="&lt;font color=&quot;#66cc00&quot;&gt;Send event on new valid signals&lt;/font&gt;" style="rounded=1;whiteSpace=wrap;html=1;absoluteArcSize=1;arcSize=14;strokeWidth=2;" parent="138" vertex="1">
                    <mxGeometry x="290" y="340" width="80" height="60" as="geometry"/>
                </mxCell>
                <mxCell id="166" style="edgeStyle=orthogonalEdgeStyle;html=1;exitX=0.5;exitY=1;exitDx=0;exitDy=0;entryX=0.5;entryY=0;entryDx=0;entryDy=0;fontColor=#66CC00;" parent="138" source="96" target="94" edge="1">
                    <mxGeometry relative="1" as="geometry">
                        <Array as="points">
                            <mxPoint x="230" y="320"/>
                            <mxPoint x="330" y="320"/>
                        </Array>
                    </mxGeometry>
                </mxCell>
                <mxCell id="203" style="edgeStyle=orthogonalEdgeStyle;html=1;exitX=1;exitY=0.5;exitDx=0;exitDy=0;entryX=0.5;entryY=0;entryDx=0;entryDy=0;fontColor=#66CC00;" parent="138" source="96" target="173" edge="1">
                    <mxGeometry relative="1" as="geometry"/>
                </mxCell>
                <mxCell id="220" style="edgeStyle=orthogonalEdgeStyle;html=1;exitX=0.5;exitY=1;exitDx=0;exitDy=0;entryX=0.5;entryY=0;entryDx=0;entryDy=0;fontColor=#66CC00;" parent="138" source="96" target="219" edge="1">
                    <mxGeometry relative="1" as="geometry">
                        <Array as="points">
                            <mxPoint x="230" y="320"/>
                            <mxPoint x="240" y="320"/>
                        </Array>
                    </mxGeometry>
                </mxCell>
                <mxCell id="96" value="&lt;font color=&quot;#66cc00&quot;&gt;attach signal generation listeners to new kline event&lt;/font&gt;" style="rounded=1;whiteSpace=wrap;html=1;absoluteArcSize=1;arcSize=14;strokeWidth=2;" parent="138" vertex="1">
                    <mxGeometry x="190" y="130" width="80" height="60" as="geometry"/>
                </mxCell>
                <mxCell id="164" style="edgeStyle=orthogonalEdgeStyle;html=1;exitX=0.5;exitY=1;exitDx=0;exitDy=0;entryX=0.5;entryY=0;entryDx=0;entryDy=0;fontColor=#66CC00;" parent="138" source="141" target="143" edge="1">
                    <mxGeometry relative="1" as="geometry"/>
                </mxCell>
                <mxCell id="141" value="&lt;font color=&quot;#66cc00&quot;&gt;get required indicators&lt;/font&gt;" style="rounded=1;whiteSpace=wrap;html=1;absoluteArcSize=1;arcSize=14;strokeWidth=2;" parent="138" vertex="1">
                    <mxGeometry x="10" y="40" width="80" height="60" as="geometry"/>
                </mxCell>
                <mxCell id="143" value="&lt;font color=&quot;#66cc00&quot;&gt;Run indicator engine to calculate indicators&lt;/font&gt;" style="rounded=1;whiteSpace=wrap;html=1;absoluteArcSize=1;arcSize=14;strokeWidth=2;" parent="138" vertex="1">
                    <mxGeometry x="10" y="130" width="80" height="60" as="geometry"/>
                </mxCell>
                <mxCell id="204" style="edgeStyle=orthogonalEdgeStyle;html=1;exitX=0.5;exitY=1;exitDx=0;exitDy=0;entryX=0.5;entryY=0;entryDx=0;entryDy=0;fontColor=#66CC00;" parent="138" source="173" target="94" edge="1">
                    <mxGeometry relative="1" as="geometry">
                        <Array as="points">
                            <mxPoint x="330" y="330"/>
                            <mxPoint x="330" y="330"/>
                        </Array>
                    </mxGeometry>
                </mxCell>
                <mxCell id="173" value="&lt;font color=&quot;#66cc00&quot;&gt;perform validation on signals&lt;/font&gt;" style="rounded=1;whiteSpace=wrap;html=1;absoluteArcSize=1;arcSize=14;strokeWidth=2;" parent="138" vertex="1">
                    <mxGeometry x="290" y="230" width="80" height="60" as="geometry"/>
                </mxCell>
                <mxCell id="200" style="edgeStyle=orthogonalEdgeStyle;html=1;exitX=0.5;exitY=1;exitDx=0;exitDy=0;entryX=0.5;entryY=0;entryDx=0;entryDy=0;fontColor=#66CC00;" parent="138" source="198" target="199" edge="1">
                    <mxGeometry relative="1" as="geometry"/>
                </mxCell>
                <mxCell id="198" value="&lt;font color=&quot;#66cc00&quot;&gt;Check for late-entering signals&lt;/font&gt;" style="rounded=1;whiteSpace=wrap;html=1;absoluteArcSize=1;arcSize=14;strokeWidth=2;" parent="138" vertex="1">
                    <mxGeometry x="100" y="230" width="80" height="60" as="geometry"/>
                </mxCell>
                <mxCell id="199" value="&lt;font color=&quot;#66cc00&quot;&gt;Broadcast late-signal event&lt;/font&gt;" style="rounded=1;whiteSpace=wrap;html=1;absoluteArcSize=1;arcSize=14;strokeWidth=2;" parent="138" vertex="1">
                    <mxGeometry x="100" y="340" width="80" height="60" as="geometry"/>
                </mxCell>
                <mxCell id="219" value="&lt;font color=&quot;#66cc00&quot;&gt;Store generated signals along with strategy name on ram&lt;/font&gt;" style="rounded=1;whiteSpace=wrap;html=1;absoluteArcSize=1;arcSize=14;strokeWidth=2;" parent="138" vertex="1">
                    <mxGeometry x="200" y="340" width="80" height="60" as="geometry"/>
                </mxCell>
                <mxCell id="144" value="indicators_engine.py" style="swimlane;whiteSpace=wrap;html=1;rounded=1;dashed=1;dashPattern=12 12;" parent="1" vertex="1">
                    <mxGeometry x="-2280" y="1570" width="210" height="180" as="geometry">
                        <mxRectangle x="-740" y="-70" width="80" height="30" as="alternateBounds"/>
                    </mxGeometry>
                </mxCell>
                <mxCell id="145" value="&lt;font color=&quot;#66cc00&quot;&gt;Attach indicator functions to new kline event&lt;/font&gt;" style="rounded=1;whiteSpace=wrap;html=1;absoluteArcSize=1;arcSize=14;strokeWidth=2;" parent="144" vertex="1">
                    <mxGeometry x="65" y="50" width="85" height="60" as="geometry"/>
                </mxCell>
                <mxCell id="154" value="portfolio_manager.py" style="swimlane;whiteSpace=wrap;html=1;rounded=1;dashed=1;dashPattern=12 12;" parent="1" vertex="1">
                    <mxGeometry x="-1330" y="1060" width="390" height="260" as="geometry">
                        <mxRectangle x="-740" y="-70" width="80" height="30" as="alternateBounds"/>
                    </mxGeometry>
                </mxCell>
                <mxCell id="158" value="&lt;font color=&quot;#66cc00&quot;&gt;Get current assets exposure&lt;/font&gt;" style="rounded=1;whiteSpace=wrap;html=1;absoluteArcSize=1;arcSize=14;strokeWidth=2;" parent="154" vertex="1">
                    <mxGeometry x="20" y="30" width="80" height="60" as="geometry"/>
                </mxCell>
                <mxCell id="171" style="edgeStyle=orthogonalEdgeStyle;html=1;exitX=0.5;exitY=1;exitDx=0;exitDy=0;entryX=0.5;entryY=0;entryDx=0;entryDy=0;fontColor=#66CC00;" parent="154" source="167" target="168" edge="1">
                    <mxGeometry relative="1" as="geometry">
                        <mxPoint x="120" y="110.00000000000023" as="targetPoint"/>
                        <Array as="points">
                            <mxPoint x="180" y="100"/>
                            <mxPoint x="120" y="100"/>
                        </Array>
                    </mxGeometry>
                </mxCell>
                <mxCell id="167" value="&lt;font color=&quot;#66cc00&quot;&gt;Calculate max exposure of user per strategy&lt;/font&gt;" style="rounded=1;whiteSpace=wrap;html=1;absoluteArcSize=1;arcSize=14;strokeWidth=2;" parent="154" vertex="1">
                    <mxGeometry x="140" y="30" width="80" height="60" as="geometry"/>
                </mxCell>
                <mxCell id="170" value="yes" style="edgeStyle=orthogonalEdgeStyle;html=1;exitX=1;exitY=0.5;exitDx=0;exitDy=0;entryX=0.5;entryY=0;entryDx=0;entryDy=0;fontColor=#66CC00;" parent="154" source="168" target="169" edge="1">
                    <mxGeometry relative="1" as="geometry"/>
                </mxCell>
                <mxCell id="168" value="possible to engage more asset?" style="rhombus;whiteSpace=wrap;html=1;rounded=0;shadow=0;glass=0;sketch=0;fillStyle=auto;fontColor=#66CC00;gradientColor=none;" parent="154" vertex="1">
                    <mxGeometry x="80" y="120" width="80" height="80" as="geometry"/>
                </mxCell>
                <mxCell id="169" value="&lt;font color=&quot;#66cc00&quot;&gt;How much more can engage?&lt;/font&gt;" style="rounded=1;whiteSpace=wrap;html=1;absoluteArcSize=1;arcSize=14;strokeWidth=2;" parent="154" vertex="1">
                    <mxGeometry x="140" y="190" width="80" height="60" as="geometry"/>
                </mxCell>
                <mxCell id="172" style="edgeStyle=orthogonalEdgeStyle;html=1;exitX=0.5;exitY=1;exitDx=0;exitDy=0;fontColor=#66CC00;entryX=0.5;entryY=0;entryDx=0;entryDy=0;" parent="154" source="158" target="168" edge="1">
                    <mxGeometry relative="1" as="geometry">
                        <mxPoint x="120" y="110.00000000000023" as="targetPoint"/>
                        <Array as="points">
                            <mxPoint x="60" y="100"/>
                            <mxPoint x="120" y="100"/>
                        </Array>
                    </mxGeometry>
                </mxCell>
                <mxCell id="189" value="&lt;font color=&quot;#66cc00&quot;&gt;Fetch users wallets' balance&lt;/font&gt;" style="rounded=1;whiteSpace=wrap;html=1;absoluteArcSize=1;arcSize=14;strokeWidth=2;" parent="154" vertex="1">
                    <mxGeometry x="260" y="30" width="80" height="60" as="geometry"/>
                </mxCell>
                <mxCell id="162" style="edgeStyle=orthogonalEdgeStyle;html=1;exitX=0.5;exitY=1;exitDx=0;exitDy=0;entryX=0.5;entryY=0;entryDx=0;entryDy=0;fontColor=#66CC00;" parent="1" source="55" target="138" edge="1">
                    <mxGeometry relative="1" as="geometry">
                        <mxPoint x="-1557.5699999999997" y="1220" as="sourcePoint"/>
                        <Array as="points">
                            <mxPoint x="-1570" y="1300"/>
                            <mxPoint x="-1820" y="1300"/>
                        </Array>
                    </mxGeometry>
                </mxCell>
                <mxCell id="177" value="order_engine.py" style="swimlane;whiteSpace=wrap;html=1;rounded=1;dashed=1;dashPattern=12 12;" parent="1" vertex="1">
                    <mxGeometry x="-1560" y="1340" width="380" height="540" as="geometry">
                        <mxRectangle x="-740" y="-70" width="80" height="30" as="alternateBounds"/>
                    </mxGeometry>
                </mxCell>
                <mxCell id="192" value="&lt;span style=&quot;color: rgb(102, 204, 0);&quot;&gt;Attach order placer&amp;nbsp;to valid signal event&lt;/span&gt;" style="rounded=1;whiteSpace=wrap;html=1;absoluteArcSize=1;arcSize=14;strokeWidth=2;" parent="177" vertex="1">
                    <mxGeometry x="197" y="50" width="80" height="60" as="geometry"/>
                </mxCell>
                <mxCell id="195" value="&lt;span style=&quot;color: rgb(102, 204, 0);&quot;&gt;Attach positions-tracker to open-position event&lt;/span&gt;" style="rounded=1;whiteSpace=wrap;html=1;absoluteArcSize=1;arcSize=14;strokeWidth=2;" parent="177" vertex="1">
                    <mxGeometry x="103" y="50" width="80" height="60" as="geometry"/>
                </mxCell>
                <mxCell id="201" value="&lt;span style=&quot;color: rgb(102, 204, 0);&quot;&gt;Attach order placer&amp;nbsp;to valid late-signals&lt;/span&gt;" style="rounded=1;whiteSpace=wrap;html=1;absoluteArcSize=1;arcSize=14;strokeWidth=2;" parent="177" vertex="1">
                    <mxGeometry x="290" y="50" width="80" height="60" as="geometry"/>
                </mxCell>
                <mxCell id="223" value="&lt;font color=&quot;#66cc00&quot;&gt;Store new-opened trades id along with strategy name on disk&lt;/font&gt;" style="rounded=1;whiteSpace=wrap;html=1;absoluteArcSize=1;arcSize=14;strokeWidth=2;" parent="177" vertex="1">
                    <mxGeometry x="200" y="170" width="80" height="60" as="geometry"/>
                </mxCell>
                <mxCell id="225" value="&lt;span style=&quot;color: rgb(102, 204, 0);&quot;&gt;get ordering method from strategy for open valid positions&lt;/span&gt;" style="rounded=1;whiteSpace=wrap;html=1;absoluteArcSize=1;arcSize=14;strokeWidth=2;" parent="177" vertex="1">
                    <mxGeometry x="10" y="50" width="80" height="60" as="geometry"/>
                </mxCell>
                <mxCell id="230" value="&lt;span style=&quot;color: rgb(102, 204, 0);&quot;&gt;Run order maintainer to track and maintain orders&lt;/span&gt;" style="rounded=1;whiteSpace=wrap;html=1;absoluteArcSize=1;arcSize=14;strokeWidth=2;" parent="177" vertex="1">
                    <mxGeometry x="100" y="170" width="80" height="60" as="geometry"/>
                </mxCell>
                <mxCell id="232" value="&lt;span style=&quot;color: rgb(102, 204, 0);&quot;&gt;store closed trades final stats on disk&lt;/span&gt;" style="rounded=1;whiteSpace=wrap;html=1;absoluteArcSize=1;arcSize=14;strokeWidth=2;" parent="177" vertex="1">
                    <mxGeometry x="150" y="290" width="80" height="60" as="geometry"/>
                </mxCell>
                <mxCell id="188" style="edgeStyle=orthogonalEdgeStyle;html=1;exitX=0.5;exitY=1;exitDx=0;exitDy=0;fontColor=#66CC00;" parent="1" source="55" target="177" edge="1">
                    <mxGeometry relative="1" as="geometry">
                        <mxPoint x="-1467.5699999999997" y="1220" as="sourcePoint"/>
                        <Array as="points">
                            <mxPoint x="-1570" y="1300"/>
                            <mxPoint x="-1370" y="1300"/>
                        </Array>
                    </mxGeometry>
                </mxCell>
                <mxCell id="212" value="yes" style="edgeStyle=orthogonalEdgeStyle;html=1;exitX=1;exitY=1;exitDx=0;exitDy=0;fontColor=#66CC00;" parent="1" source="76" edge="1">
                    <mxGeometry x="-0.3333" relative="1" as="geometry">
                        <mxPoint x="-1460" y="930" as="targetPoint"/>
                        <Array as="points">
                            <mxPoint x="-1560" y="900"/>
                            <mxPoint x="-1460" y="900"/>
                        </Array>
                        <mxPoint as="offset"/>
                    </mxGeometry>
                </mxCell>
                <mxCell id="216" style="edgeStyle=orthogonalEdgeStyle;html=1;exitX=0.5;exitY=1;exitDx=0;exitDy=0;entryX=0.5;entryY=0;entryDx=0;entryDy=0;fontColor=#66CC00;" parent="1" source="79" target="101" edge="1">
                    <mxGeometry relative="1" as="geometry">
                        <Array as="points">
                            <mxPoint x="-1460" y="610"/>
                            <mxPoint x="-1650" y="610"/>
                            <mxPoint x="-1650" y="730"/>
                            <mxPoint x="-1945" y="730"/>
                        </Array>
                    </mxGeometry>
                </mxCell>
                <mxCell id="217" style="edgeStyle=orthogonalEdgeStyle;html=1;exitX=0.5;exitY=1;exitDx=0;exitDy=0;fontColor=#66CC00;entryX=0.5;entryY=0;entryDx=0;entryDy=0;" parent="1" source="70" target="101" edge="1">
                    <mxGeometry relative="1" as="geometry">
                        <mxPoint x="-1920" y="690" as="targetPoint"/>
                        <Array as="points">
                            <mxPoint x="-1580" y="730"/>
                            <mxPoint x="-1945" y="730"/>
                        </Array>
                    </mxGeometry>
                </mxCell>
                <mxCell id="218" style="edgeStyle=orthogonalEdgeStyle;html=1;exitX=0.5;exitY=1;exitDx=0;exitDy=0;entryX=0.5;entryY=0;entryDx=0;entryDy=0;fontColor=#66CC00;" parent="1" source="67" target="154" edge="1">
                    <mxGeometry relative="1" as="geometry">
                        <Array as="points">
                            <mxPoint x="-1460" y="1000"/>
                            <mxPoint x="-1135" y="1000"/>
                        </Array>
                    </mxGeometry>
                </mxCell>
                <mxCell id="221" style="edgeStyle=orthogonalEdgeStyle;html=1;exitX=0.5;exitY=1;exitDx=0;exitDy=0;fontColor=#66CC00;" parent="1" source="173" edge="1">
                    <mxGeometry relative="1" as="geometry">
                        <mxPoint x="-1770" y="1680" as="targetPoint"/>
                        <Array as="points">
                            <mxPoint x="-1680" y="1660"/>
                            <mxPoint x="-1770" y="1660"/>
                        </Array>
                    </mxGeometry>
                </mxCell>
                <mxCell id="228" value="order_placing.py" style="swimlane;whiteSpace=wrap;html=1;rounded=1;dashed=1;dashPattern=12 12;" parent="1" vertex="1">
                    <mxGeometry x="-1140" y="1500" width="320" height="410" as="geometry">
                        <mxRectangle x="-740" y="-70" width="80" height="30" as="alternateBounds"/>
                    </mxGeometry>
                </mxCell>
                <mxCell id="229" value="&lt;font color=&quot;#66cc00&quot;&gt;send order placement requests to exchange (valid signals)&lt;/font&gt;" style="rounded=1;whiteSpace=wrap;html=1;absoluteArcSize=1;arcSize=14;strokeWidth=2;" parent="228" vertex="1">
                    <mxGeometry x="56.25" y="140" width="85" height="60" as="geometry"/>
                </mxCell>
                <mxCell id="236" style="edgeStyle=orthogonalEdgeStyle;html=1;exitX=0.5;exitY=1;exitDx=0;exitDy=0;entryX=0.5;entryY=0;entryDx=0;entryDy=0;fontColor=#66CC00;" parent="228" source="227" target="202" edge="1">
                    <mxGeometry relative="1" as="geometry"/>
                </mxCell>
                <mxCell id="237" style="edgeStyle=orthogonalEdgeStyle;html=1;exitX=0.5;exitY=1;exitDx=0;exitDy=0;entryX=0.5;entryY=0;entryDx=0;entryDy=0;fontColor=#66CC00;" parent="228" source="227" target="229" edge="1">
                    <mxGeometry relative="1" as="geometry"/>
                </mxCell>
                <mxCell id="227" value="&lt;font color=&quot;#66cc00&quot;&gt;run position sizer before placing orders&lt;/font&gt;" style="rounded=1;whiteSpace=wrap;html=1;absoluteArcSize=1;arcSize=14;strokeWidth=2;" parent="228" vertex="1">
                    <mxGeometry x="120" y="40" width="80" height="60" as="geometry"/>
                </mxCell>
                <mxCell id="240" style="edgeStyle=orthogonalEdgeStyle;html=1;exitX=0.5;exitY=1;exitDx=0;exitDy=0;entryX=0.5;entryY=0;entryDx=0;entryDy=0;fontColor=#66CC00;" parent="228" source="235" target="231" edge="1">
                    <mxGeometry relative="1" as="geometry"/>
                </mxCell>
                <mxCell id="235" value="&lt;span style=&quot;color: rgb(102, 204, 0);&quot;&gt;broadcast the trade-opened event&lt;/span&gt;" style="rounded=1;whiteSpace=wrap;html=1;absoluteArcSize=1;arcSize=14;strokeWidth=2;" parent="228" vertex="1">
                    <mxGeometry x="120" y="240" width="80" height="60" as="geometry"/>
                </mxCell>
                <mxCell id="238" style="edgeStyle=orthogonalEdgeStyle;html=1;exitX=0.5;exitY=1;exitDx=0;exitDy=0;entryX=0.5;entryY=0;entryDx=0;entryDy=0;fontColor=#66CC00;" parent="228" source="202" target="235" edge="1">
                    <mxGeometry relative="1" as="geometry"/>
                </mxCell>
                <mxCell id="202" value="&lt;font color=&quot;#66cc00&quot;&gt;place sl and tp for not-known stategy open-positions&lt;/font&gt;" style="rounded=1;whiteSpace=wrap;html=1;absoluteArcSize=1;arcSize=14;strokeWidth=2;" parent="228" vertex="1">
                    <mxGeometry x="183.75" y="140" width="80" height="60" as="geometry"/>
                </mxCell>
                <mxCell id="231" value="&lt;span style=&quot;color: rgb(102, 204, 0);&quot;&gt;broadcast the trade-closed event&lt;/span&gt;" style="rounded=1;whiteSpace=wrap;html=1;absoluteArcSize=1;arcSize=14;strokeWidth=2;" parent="228" vertex="1">
                    <mxGeometry x="120" y="330" width="80" height="60" as="geometry"/>
                </mxCell>
                <mxCell id="239" style="edgeStyle=orthogonalEdgeStyle;html=1;exitX=0.5;exitY=1;exitDx=0;exitDy=0;fontColor=#66CC00;entryX=0.5;entryY=0;entryDx=0;entryDy=0;" parent="228" source="229" target="235" edge="1">
                    <mxGeometry relative="1" as="geometry">
                        <mxPoint x="180" y="420" as="targetPoint"/>
                    </mxGeometry>
                </mxCell>
                <mxCell id="241" style="edgeStyle=orthogonalEdgeStyle;html=1;exitX=0.5;exitY=1;exitDx=0;exitDy=0;entryX=0.5;entryY=0;entryDx=0;entryDy=0;fontColor=#66CC00;" parent="1" source="201" target="228" edge="1">
                    <mxGeometry relative="1" as="geometry"/>
                </mxCell>
                <mxCell id="242" style="edgeStyle=orthogonalEdgeStyle;html=1;exitX=0.5;exitY=1;exitDx=0;exitDy=0;entryX=0.5;entryY=0;entryDx=0;entryDy=0;fontColor=#66CC00;" parent="1" source="192" target="228" edge="1">
                    <mxGeometry relative="1" as="geometry"/>
                </mxCell>
                <mxCell id="245" style="edgeStyle=none;html=1;exitX=0.5;exitY=1;exitDx=0;exitDy=0;entryX=0.5;entryY=0;entryDx=0;entryDy=0;" parent="1" source="246" target="247" edge="1">
                    <mxGeometry relative="1" as="geometry">
                        <mxPoint x="-3630" y="-52.5" as="targetPoint"/>
                    </mxGeometry>
                </mxCell>
                <mxCell id="246" value="&lt;font color=&quot;#007fff&quot;&gt;Start&lt;/font&gt;" style="ellipse;whiteSpace=wrap;html=1;" parent="1" vertex="1">
                    <mxGeometry x="-3690" y="-162.5" width="120" height="80" as="geometry"/>
                </mxCell>
                <mxCell id="247" value="bot.py" style="swimlane;whiteSpace=wrap;html=1;rounded=1;dashed=1;dashPattern=12 12;" parent="1" vertex="1">
                    <mxGeometry x="-3875" y="-42.5" width="490" height="370" as="geometry">
                        <mxRectangle x="-740" y="-70" width="80" height="30" as="alternateBounds"/>
                    </mxGeometry>
                </mxCell>
                <mxCell id="248" style="edgeStyle=orthogonalEdgeStyle;html=1;exitX=0.5;exitY=1;exitDx=0;exitDy=0;entryX=0.5;entryY=0;entryDx=0;entryDy=0;entryPerimeter=0;fontColor=#66CC00;" parent="247" source="249" target="250" edge="1">
                    <mxGeometry relative="1" as="geometry">
                        <mxPoint x="244.98" y="120" as="sourcePoint"/>
                    </mxGeometry>
                </mxCell>
                <mxCell id="249" value="&lt;font color=&quot;#66cc00&quot;&gt;Read Profile config&lt;/font&gt;" style="rounded=1;whiteSpace=wrap;html=1;absoluteArcSize=1;arcSize=14;strokeWidth=2;" parent="247" vertex="1">
                    <mxGeometry x="204.98" y="40" width="80" height="60" as="geometry"/>
                </mxCell>
                <mxCell id="261" style="edgeStyle=none;html=1;exitX=0.5;exitY=1;exitDx=0;exitDy=0;exitPerimeter=0;entryX=0.5;entryY=0;entryDx=0;entryDy=0;" parent="247" source="250" target="255" edge="1">
                    <mxGeometry relative="1" as="geometry"/>
                </mxCell>
                <mxCell id="250" value="Which Profile?" style="strokeWidth=2;html=1;shape=mxgraph.flowchart.decision;whiteSpace=wrap;fontColor=#66CC00;" parent="247" vertex="1">
                    <mxGeometry x="194.98" y="130" width="100" height="100" as="geometry"/>
                </mxCell>
                <mxCell id="251" value="&lt;font color=&quot;#66cc00&quot;&gt;Live&lt;/font&gt;" style="rounded=1;whiteSpace=wrap;html=1;absoluteArcSize=1;arcSize=14;strokeWidth=2;" parent="247" vertex="1">
                    <mxGeometry x="25" y="250" width="80" height="60" as="geometry"/>
                </mxCell>
                <mxCell id="252" style="edgeStyle=orthogonalEdgeStyle;html=1;exitX=0;exitY=0.5;exitDx=0;exitDy=0;exitPerimeter=0;entryX=0.5;entryY=0;entryDx=0;entryDy=0;fontColor=#66CC00;" parent="247" source="250" target="251" edge="1">
                    <mxGeometry relative="1" as="geometry">
                        <mxPoint x="109.97999999999999" y="250" as="targetPoint"/>
                    </mxGeometry>
                </mxCell>
                <mxCell id="253" value="&lt;font color=&quot;#66cc00&quot;&gt;Back-test&lt;/font&gt;" style="rounded=1;whiteSpace=wrap;html=1;absoluteArcSize=1;arcSize=14;strokeWidth=2;" parent="247" vertex="1">
                    <mxGeometry x="115" y="250" width="80" height="60" as="geometry"/>
                </mxCell>
                <mxCell id="254" style="edgeStyle=orthogonalEdgeStyle;html=1;exitX=0;exitY=0.5;exitDx=0;exitDy=0;exitPerimeter=0;entryX=0.5;entryY=0;entryDx=0;entryDy=0;fontColor=#66CC00;" parent="247" source="250" target="253" edge="1">
                    <mxGeometry relative="1" as="geometry">
                        <mxPoint x="199.98" y="250" as="targetPoint"/>
                    </mxGeometry>
                </mxCell>
                <mxCell id="255" value="&lt;font color=&quot;#66cc00&quot;&gt;Forward-test&lt;/font&gt;" style="rounded=1;whiteSpace=wrap;html=1;absoluteArcSize=1;arcSize=14;strokeWidth=2;" parent="247" vertex="1">
                    <mxGeometry x="205" y="250" width="80" height="60" as="geometry"/>
                </mxCell>
                <mxCell id="256" style="edgeStyle=orthogonalEdgeStyle;html=1;exitX=1;exitY=0.5;exitDx=0;exitDy=0;exitPerimeter=0;entryX=0.5;entryY=0;entryDx=0;entryDy=0;fontColor=#66CC00;" parent="247" source="250" target="257" edge="1">
                    <mxGeometry relative="1" as="geometry">
                        <mxPoint x="289.98" y="250" as="targetPoint"/>
                    </mxGeometry>
                </mxCell>
                <mxCell id="257" value="&lt;font color=&quot;#66cc00&quot;&gt;Setup-test&lt;/font&gt;" style="rounded=1;whiteSpace=wrap;html=1;absoluteArcSize=1;arcSize=14;strokeWidth=2;" parent="247" vertex="1">
                    <mxGeometry x="295" y="250" width="80" height="60" as="geometry"/>
                </mxCell>
                <mxCell id="258" style="edgeStyle=orthogonalEdgeStyle;html=1;exitX=1;exitY=0.5;exitDx=0;exitDy=0;exitPerimeter=0;entryX=0.5;entryY=0;entryDx=0;entryDy=0;fontColor=#66CC00;" parent="247" source="250" target="260" edge="1">
                    <mxGeometry relative="1" as="geometry">
                        <mxPoint x="379.98" y="250" as="targetPoint"/>
                    </mxGeometry>
                </mxCell>
                <mxCell id="259" value="&lt;font color=&quot;#66cc00&quot;&gt;Run logger&lt;/font&gt;" style="rounded=1;whiteSpace=wrap;html=1;absoluteArcSize=1;arcSize=14;strokeWidth=2;" parent="247" vertex="1">
                    <mxGeometry x="114.97999999999999" y="40" width="80" height="60" as="geometry"/>
                </mxCell>
                <mxCell id="260" value="&lt;font color=&quot;#66cc00&quot;&gt;Platform&lt;/font&gt;" style="rounded=1;whiteSpace=wrap;html=1;absoluteArcSize=1;arcSize=14;strokeWidth=2;" parent="247" vertex="1">
                    <mxGeometry x="385" y="250" width="80" height="60" as="geometry"/>
                </mxCell>
                <mxCell id="262" value="profile.platform.py" style="swimlane;whiteSpace=wrap;html=1;rounded=1;dashed=1;dashPattern=12 12;" parent="1" vertex="1">
                    <mxGeometry x="-3875" y="380" width="490" height="560" as="geometry">
                        <mxRectangle x="-740" y="-70" width="80" height="30" as="alternateBounds"/>
                    </mxGeometry>
                </mxCell>
                <mxCell id="294" style="edgeStyle=orthogonalEdgeStyle;html=1;exitX=0.5;exitY=1;exitDx=0;exitDy=0;entryX=0.5;entryY=0;entryDx=0;entryDy=0;" parent="262" source="264" target="279" edge="1">
                    <mxGeometry relative="1" as="geometry"/>
                </mxCell>
                <mxCell id="264" value="&lt;font color=&quot;#66cc00&quot;&gt;Read Users Config&lt;/font&gt;" style="rounded=1;whiteSpace=wrap;html=1;absoluteArcSize=1;arcSize=14;strokeWidth=2;" parent="262" vertex="1">
                    <mxGeometry x="52.51" y="40" width="80" height="60" as="geometry"/>
                </mxCell>
                <mxCell id="278" value="&lt;font color=&quot;#66cc00&quot;&gt;Run scheduler.py for active times of each strategy of each user&lt;/font&gt;" style="rounded=1;whiteSpace=wrap;html=1;absoluteArcSize=1;arcSize=14;strokeWidth=2;" parent="262" vertex="1">
                    <mxGeometry x="45" y="230" width="95.02" height="70" as="geometry"/>
                </mxCell>
                <mxCell id="295" style="edgeStyle=orthogonalEdgeStyle;html=1;exitX=0.5;exitY=1;exitDx=0;exitDy=0;entryX=0.5;entryY=0;entryDx=0;entryDy=0;" parent="262" source="279" target="278" edge="1">
                    <mxGeometry relative="1" as="geometry"/>
                </mxCell>
                <mxCell id="279" value="&lt;font color=&quot;#66cc00&quot;&gt;Create a DataFrame of users (+their strategies and exchanges)&lt;/font&gt;" style="rounded=1;whiteSpace=wrap;html=1;absoluteArcSize=1;arcSize=14;strokeWidth=2;" parent="262" vertex="1">
                    <mxGeometry x="50" y="128" width="85" height="80" as="geometry"/>
                </mxCell>
                <mxCell id="301" value="&lt;font color=&quot;#66cc00&quot;&gt;Check user's accounts for any open positions&lt;/font&gt;" style="rounded=1;whiteSpace=wrap;html=1;absoluteArcSize=1;arcSize=14;strokeWidth=2;" parent="262" vertex="1">
                    <mxGeometry x="165" y="235" width="80" height="60" as="geometry"/>
                </mxCell>
                <mxCell id="302" value="&lt;font color=&quot;#66cc00&quot;&gt;Attach listener-functions to start active time events of each user&lt;/font&gt;" style="rounded=1;whiteSpace=wrap;html=1;absoluteArcSize=1;arcSize=14;strokeWidth=2;" parent="262" vertex="1">
                    <mxGeometry x="265" y="227.5" width="95" height="75" as="geometry"/>
                </mxCell>
                <mxCell id="277" style="edgeStyle=orthogonalEdgeStyle;html=1;exitX=0.5;exitY=1;exitDx=0;exitDy=0;entryX=0.5;entryY=0;entryDx=0;entryDy=0;" parent="1" source="260" target="262" edge="1">
                    <mxGeometry relative="1" as="geometry">
                        <Array as="points">
                            <mxPoint x="-3450" y="350"/>
                            <mxPoint x="-3630" y="350"/>
                        </Array>
                    </mxGeometry>
                </mxCell>
                <mxCell id="281" value="Scheduler.py" style="swimlane;whiteSpace=wrap;html=1;rounded=1;dashed=1;dashPattern=12 12;" parent="1" vertex="1">
                    <mxGeometry x="-4400" y="730" width="490" height="450" as="geometry">
                        <mxRectangle x="-740" y="-70" width="80" height="30" as="alternateBounds"/>
                    </mxGeometry>
                </mxCell>
                <mxCell id="289" value="Yes" style="edgeStyle=orthogonalEdgeStyle;html=1;exitX=0.5;exitY=1;exitDx=0;exitDy=0;exitPerimeter=0;entryX=0.5;entryY=0;entryDx=0;entryDy=0;" parent="281" source="285" target="287" edge="1">
                    <mxGeometry x="-0.0868" y="8" relative="1" as="geometry">
                        <mxPoint as="offset"/>
                    </mxGeometry>
                </mxCell>
                <mxCell id="290" value="No" style="edgeStyle=orthogonalEdgeStyle;html=1;exitX=0.5;exitY=1;exitDx=0;exitDy=0;exitPerimeter=0;entryX=0.5;entryY=0;entryDx=0;entryDy=0;" parent="281" source="285" target="288" edge="1">
                    <mxGeometry x="-0.0868" y="-8" relative="1" as="geometry">
                        <mxPoint as="offset"/>
                    </mxGeometry>
                </mxCell>
                <mxCell id="293" style="edgeStyle=orthogonalEdgeStyle;html=1;exitX=0.5;exitY=1;exitDx=0;exitDy=0;exitPerimeter=0;entryX=0.5;entryY=0;entryDx=0;entryDy=0;" parent="281" source="285" target="292" edge="1">
                    <mxGeometry relative="1" as="geometry"/>
                </mxCell>
                <mxCell id="285" value="Is there any&amp;nbsp;synchrony between now and any of working times?" style="strokeWidth=2;html=1;shape=mxgraph.flowchart.decision;whiteSpace=wrap;fontColor=#66CC00;" parent="281" vertex="1">
                    <mxGeometry x="138.75" y="50" width="110" height="110" as="geometry"/>
                </mxCell>
                <mxCell id="299" style="edgeStyle=orthogonalEdgeStyle;html=1;exitX=0.5;exitY=1;exitDx=0;exitDy=0;entryX=0.5;entryY=0;entryDx=0;entryDy=0;" parent="281" source="287" target="297" edge="1">
                    <mxGeometry relative="1" as="geometry"/>
                </mxCell>
                <mxCell id="287" value="Broadcast active-time for that specific strategy of the user" style="rounded=1;whiteSpace=wrap;html=1;absoluteArcSize=1;arcSize=14;strokeWidth=2;" parent="281" vertex="1">
                    <mxGeometry x="226.24" y="195" width="95.02" height="70" as="geometry"/>
                </mxCell>
                <mxCell id="298" style="edgeStyle=orthogonalEdgeStyle;html=1;exitX=0.5;exitY=1;exitDx=0;exitDy=0;entryX=0.5;entryY=0;entryDx=0;entryDy=0;" parent="281" source="288" target="297" edge="1">
                    <mxGeometry relative="1" as="geometry"/>
                </mxCell>
                <mxCell id="288" value="Schedule an event trigger for strart of active time of that strategy of user" style="rounded=1;whiteSpace=wrap;html=1;absoluteArcSize=1;arcSize=14;strokeWidth=2;" parent="281" vertex="1">
                    <mxGeometry x="66.24" y="195" width="95.02" height="70" as="geometry"/>
                </mxCell>
                <mxCell id="292" value="Schedule an event trigger for end of working time of strategy of user" style="rounded=1;whiteSpace=wrap;html=1;absoluteArcSize=1;arcSize=14;strokeWidth=2;" parent="281" vertex="1">
                    <mxGeometry x="328.75" y="195" width="95.02" height="70" as="geometry"/>
                </mxCell>
                <mxCell id="296" value="Build two events for start and end of each strategy of each user to broadcast them later" style="text;html=1;strokeColor=none;fillColor=none;align=center;verticalAlign=middle;whiteSpace=wrap;rounded=0;" parent="281" vertex="1">
                    <mxGeometry x="328.75" y="40" width="130" height="70" as="geometry"/>
                </mxCell>
                <mxCell id="297" value="&lt;font color=&quot;#66cc00&quot;&gt;Schedule the next event trigger after each event trigger&lt;/font&gt;" style="rounded=1;whiteSpace=wrap;html=1;absoluteArcSize=1;arcSize=14;strokeWidth=2;" parent="281" vertex="1">
                    <mxGeometry x="198.34" y="320" width="93.33" height="70" as="geometry"/>
                </mxCell>
                <mxCell id="300" style="edgeStyle=orthogonalEdgeStyle;html=1;exitX=0.5;exitY=1;exitDx=0;exitDy=0;entryX=0.5;entryY=0;entryDx=0;entryDy=0;" parent="281" source="292" target="297" edge="1">
                    <mxGeometry relative="1" as="geometry">
                        <mxPoint x="240" y="320" as="targetPoint"/>
                    </mxGeometry>
                </mxCell>
                <mxCell id="286" style="edgeStyle=orthogonalEdgeStyle;html=1;exitX=0.5;exitY=1;exitDx=0;exitDy=0;entryX=0.5;entryY=0;entryDx=0;entryDy=0;" parent="1" source="278" target="281" edge="1">
                    <mxGeometry relative="1" as="geometry"/>
                </mxCell>
                <mxCell id="291" value="&lt;h1&gt;Trades_df:&lt;/h1&gt;&lt;div&gt;It consists of record of every order placed on exchange for an specific signal including entry, sl, tp, trailing adjustment orders.&lt;/div&gt;" style="text;html=1;strokeColor=none;fillColor=none;spacing=5;spacingTop=-20;whiteSpace=wrap;overflow=hidden;rounded=0;" parent="1" vertex="1">
                    <mxGeometry x="-3320" y="370" width="190" height="120" as="geometry"/>
                </mxCell>
                <mxCell id="304" value="data_processor.py" style="swimlane;whiteSpace=wrap;html=1;rounded=1;dashed=1;dashPattern=12 12;" parent="1" vertex="1">
                    <mxGeometry x="-3470" y="1305" width="460" height="465" as="geometry">
                        <mxRectangle x="-1050" y="500" width="80" height="30" as="alternateBounds"/>
                    </mxGeometry>
                </mxCell>
                <mxCell id="305" style="edgeStyle=orthogonalEdgeStyle;html=1;exitX=0.5;exitY=1;exitDx=0;exitDy=0;entryX=0.5;entryY=0;entryDx=0;entryDy=0;fontColor=#66CC00;" parent="304" source="306" target="307" edge="1">
                    <mxGeometry relative="1" as="geometry"/>
                </mxCell>
                <mxCell id="344" style="edgeStyle=orthogonalEdgeStyle;html=1;exitX=0.5;exitY=1;exitDx=0;exitDy=0;entryX=0.5;entryY=0;entryDx=0;entryDy=0;fontSize=9;fontColor=#00CC00;" parent="304" source="306" target="343" edge="1">
                    <mxGeometry relative="1" as="geometry"/>
                </mxCell>
                <mxCell id="306" value="&lt;font color=&quot;#66cc00&quot;&gt;Start fetching the required market data set&lt;/font&gt;" style="rounded=1;whiteSpace=wrap;html=1;absoluteArcSize=1;arcSize=14;strokeWidth=2;" parent="304" vertex="1">
                    <mxGeometry x="250" y="280" width="80" height="60" as="geometry"/>
                </mxCell>
                <mxCell id="307" value="&lt;font color=&quot;#66cc00&quot;&gt;broadcast event on candle close&lt;/font&gt;" style="rounded=1;whiteSpace=wrap;html=1;absoluteArcSize=1;arcSize=14;strokeWidth=2;" parent="304" vertex="1">
                    <mxGeometry x="250" y="362.5" width="80" height="60" as="geometry"/>
                </mxCell>
                <mxCell id="338" style="edgeStyle=orthogonalEdgeStyle;html=1;exitX=0.5;exitY=1;exitDx=0;exitDy=0;entryX=0.5;entryY=0;entryDx=0;entryDy=0;fontSize=9;fontColor=#00CC00;" parent="304" source="309" target="310" edge="1">
                    <mxGeometry relative="1" as="geometry"/>
                </mxCell>
                <mxCell id="309" value="&lt;font color=&quot;#66cc00&quot;&gt;constantly fetching Open Positions of users&lt;/font&gt;" style="rounded=1;whiteSpace=wrap;html=1;absoluteArcSize=1;arcSize=14;strokeWidth=2;" parent="304" vertex="1">
                    <mxGeometry x="65" y="280" width="80" height="60" as="geometry"/>
                </mxCell>
                <mxCell id="310" value="&lt;font color=&quot;#66cc00&quot;&gt;Broadcast event on new open positions&lt;/font&gt;" style="rounded=1;whiteSpace=wrap;html=1;absoluteArcSize=1;arcSize=14;strokeWidth=2;" parent="304" vertex="1">
                    <mxGeometry x="65" y="362.5" width="80" height="60" as="geometry"/>
                </mxCell>
                <mxCell id="317" style="edgeStyle=orthogonalEdgeStyle;html=1;exitX=0.5;exitY=1;exitDx=0;exitDy=0;entryX=0.5;entryY=0;entryDx=0;entryDy=0;fontSize=9;fontColor=#00CC00;" parent="304" source="312" target="315" edge="1">
                    <mxGeometry relative="1" as="geometry">
                        <Array as="points">
                            <mxPoint x="290" y="110"/>
                            <mxPoint x="290" y="110"/>
                        </Array>
                    </mxGeometry>
                </mxCell>
                <mxCell id="312" value="&lt;font color=&quot;#00cc00&quot;&gt;On merket data fetch event of each strategy of user:&lt;/font&gt;" style="shape=process;whiteSpace=wrap;html=1;backgroundOutline=1;" parent="304" vertex="1">
                    <mxGeometry x="230" y="40" width="120" height="60" as="geometry"/>
                </mxCell>
                <mxCell id="319" style="edgeStyle=orthogonalEdgeStyle;html=1;exitX=0.5;exitY=1;exitDx=0;exitDy=0;entryX=0.5;entryY=0;entryDx=0;entryDy=0;fontSize=9;fontColor=#00CC00;" parent="304" source="315" target="306" edge="1">
                    <mxGeometry relative="1" as="geometry"/>
                </mxCell>
                <mxCell id="315" value="&lt;font color=&quot;#66cc00&quot;&gt;extend the required market data set with that market data&lt;/font&gt;" style="rounded=1;whiteSpace=wrap;html=1;absoluteArcSize=1;arcSize=14;strokeWidth=2;" parent="304" vertex="1">
                    <mxGeometry x="245" y="200" width="90" height="60" as="geometry"/>
                </mxCell>
                <mxCell id="316" value="&lt;font style=&quot;font-size: 9px;&quot;&gt;It's a set of required market data with user-strategies that require them&lt;/font&gt;" style="shape=callout;whiteSpace=wrap;html=1;perimeter=calloutPerimeter;fontColor=#00CC00;size=30;position=0.17;position2=0;" parent="304" vertex="1">
                    <mxGeometry x="335" y="130" width="85" height="90" as="geometry"/>
                </mxCell>
                <mxCell id="337" style="edgeStyle=orthogonalEdgeStyle;html=1;exitX=0.5;exitY=1;exitDx=0;exitDy=0;entryX=0.5;entryY=0;entryDx=0;entryDy=0;fontSize=9;fontColor=#00CC00;" parent="304" source="322" target="309" edge="1">
                    <mxGeometry relative="1" as="geometry"/>
                </mxCell>
                <mxCell id="322" value="&lt;font color=&quot;#00cc00&quot;&gt;On open-positions data fetch event of each user's strategies:&lt;/font&gt;" style="shape=process;whiteSpace=wrap;html=1;backgroundOutline=1;" parent="304" vertex="1">
                    <mxGeometry x="40" y="40" width="130" height="60" as="geometry"/>
                </mxCell>
                <mxCell id="343" value="&lt;font color=&quot;#66cc00&quot;&gt;broadcast event on market data populated&lt;/font&gt;" style="rounded=1;whiteSpace=wrap;html=1;absoluteArcSize=1;arcSize=14;strokeWidth=2;" parent="304" vertex="1">
                    <mxGeometry x="340" y="362.5" width="80" height="60" as="geometry"/>
                </mxCell>
                <mxCell id="324" value="platform_attachments.py" style="swimlane;whiteSpace=wrap;html=1;rounded=1;dashed=1;dashPattern=12 12;" parent="1" vertex="1">
                    <mxGeometry x="-3340" y="730" width="450" height="440" as="geometry">
                        <mxRectangle x="-1050" y="500" width="80" height="30" as="alternateBounds"/>
                    </mxGeometry>
                </mxCell>
                <mxCell id="340" value="&lt;font color=&quot;#66cc00&quot;&gt;Attach market data fetch for each strategy of users to the corresponding active time event trigger&lt;/font&gt;" style="rounded=1;whiteSpace=wrap;html=1;absoluteArcSize=1;arcSize=14;strokeWidth=2;" parent="324" vertex="1">
                    <mxGeometry x="230.61" y="55" width="129.39" height="80" as="geometry"/>
                </mxCell>
                <mxCell id="341" value="&lt;font color=&quot;#66cc00&quot;&gt;Attach open-positions fetch to corresponding active time event trigger only for market pairs that are not already active for user by another strategy&lt;br&gt;&lt;/font&gt;" style="rounded=1;whiteSpace=wrap;html=1;absoluteArcSize=1;arcSize=14;strokeWidth=2;" parent="324" vertex="1">
                    <mxGeometry x="50" y="45" width="160" height="100" as="geometry"/>
                </mxCell>
                <mxCell id="339" style="edgeStyle=orthogonalEdgeStyle;html=1;exitX=0.5;exitY=1;exitDx=0;exitDy=0;entryX=0.5;entryY=0;entryDx=0;entryDy=0;fontSize=9;fontColor=#00CC00;" parent="1" source="302" target="324" edge="1">
                    <mxGeometry relative="1" as="geometry"/>
                </mxCell>
                <mxCell id="345" value="trading/market/validator.py" style="swimlane;whiteSpace=wrap;html=1;rounded=1;dashed=1;dashPattern=12 12;" parent="1" vertex="1">
                    <mxGeometry x="-3385" y="1860" width="460" height="465" as="geometry">
                        <mxRectangle x="-1050" y="500" width="80" height="30" as="alternateBounds"/>
                    </mxGeometry>
                </mxCell>
                <mxCell id="361" style="edgeStyle=orthogonalEdgeStyle;html=1;exitX=0.5;exitY=1;exitDx=0;exitDy=0;entryX=0.5;entryY=0;entryDx=0;entryDy=0;fontSize=9;fontColor=#00CC00;" parent="1" source="141" target="144" edge="1">
                    <mxGeometry relative="1" as="geometry">
                        <Array as="points">
                            <mxPoint x="-1960" y="1450"/>
                            <mxPoint x="-2175" y="1450"/>
                        </Array>
                    </mxGeometry>
                </mxCell>
                <mxCell id="362" style="edgeStyle=orthogonalEdgeStyle;html=1;exitX=0.5;exitY=1;exitDx=0;exitDy=0;entryX=0.5;entryY=0;entryDx=0;entryDy=0;fontSize=9;fontColor=#00CC00;" parent="1" source="143" target="144" edge="1">
                    <mxGeometry relative="1" as="geometry"/>
                </mxCell>
                <mxCell id="363" style="edgeStyle=none;html=1;exitX=0.5;exitY=1;exitDx=0;exitDy=0;entryX=0.5;entryY=0;entryDx=0;entryDy=0;" parent="1" source="364" target="378" edge="1">
                    <mxGeometry relative="1" as="geometry">
                        <mxPoint x="460" y="-80" as="targetPoint"/>
                    </mxGeometry>
                </mxCell>
                <mxCell id="364" value="&lt;font color=&quot;#007fff&quot;&gt;Start&lt;/font&gt;" style="ellipse;whiteSpace=wrap;html=1;" parent="1" vertex="1">
                    <mxGeometry x="400" y="-190" width="120" height="80" as="geometry"/>
                </mxCell>
                <mxCell id="378" value="bot.py" style="swimlane;whiteSpace=wrap;html=1;rounded=1;dashed=1;dashPattern=12 12;" parent="1" vertex="1">
                    <mxGeometry x="127.5" y="-82.5" width="665" height="412.5" as="geometry">
                        <mxRectangle x="-740" y="-70" width="80" height="30" as="alternateBounds"/>
                    </mxGeometry>
                </mxCell>
                <mxCell id="379" style="edgeStyle=orthogonalEdgeStyle;html=1;exitX=0.5;exitY=1;exitDx=0;exitDy=0;entryX=0.5;entryY=0;entryDx=0;entryDy=0;fontColor=#66CC00;" parent="378" source="380" target="413" edge="1">
                    <mxGeometry relative="1" as="geometry">
                        <mxPoint x="332.5" y="120" as="sourcePoint"/>
                        <mxPoint x="332.5" y="122.5" as="targetPoint"/>
                    </mxGeometry>
                </mxCell>
                <mxCell id="380" value="&lt;font color=&quot;#66cc00&quot;&gt;Read Profile config&lt;/font&gt;" style="rounded=1;whiteSpace=wrap;html=1;absoluteArcSize=1;arcSize=14;strokeWidth=2;" parent="378" vertex="1">
                    <mxGeometry x="292.5" y="40" width="80" height="60" as="geometry"/>
                </mxCell>
                <mxCell id="383" value="&lt;font color=&quot;#66cc00&quot;&gt;Live&lt;/font&gt;" style="rounded=1;whiteSpace=wrap;html=1;absoluteArcSize=1;arcSize=14;strokeWidth=2;" parent="378" vertex="1">
                    <mxGeometry x="22.5" y="292.5" width="80" height="60" as="geometry"/>
                </mxCell>
                <mxCell id="385" value="&lt;font color=&quot;#66cc00&quot;&gt;Back-test&lt;/font&gt;" style="rounded=1;whiteSpace=wrap;html=1;absoluteArcSize=1;arcSize=14;strokeWidth=2;" parent="378" vertex="1">
                    <mxGeometry x="382.5" y="292.5" width="80" height="60" as="geometry"/>
                </mxCell>
                <mxCell id="387" value="&lt;font color=&quot;#66cc00&quot;&gt;Forward-test&lt;/font&gt;" style="rounded=1;whiteSpace=wrap;html=1;absoluteArcSize=1;arcSize=14;strokeWidth=2;" parent="378" vertex="1">
                    <mxGeometry x="472.5" y="292.5" width="80" height="60" as="geometry"/>
                </mxCell>
                <mxCell id="389" value="&lt;font color=&quot;#66cc00&quot;&gt;Setup-test&lt;/font&gt;" style="rounded=1;whiteSpace=wrap;html=1;absoluteArcSize=1;arcSize=14;strokeWidth=2;" parent="378" vertex="1">
                    <mxGeometry x="562.5" y="292.5" width="80" height="60" as="geometry"/>
                </mxCell>
                <mxCell id="391" value="&lt;font color=&quot;#66cc00&quot;&gt;Run logger&lt;/font&gt;" style="rounded=1;whiteSpace=wrap;html=1;absoluteArcSize=1;arcSize=14;strokeWidth=2;" parent="378" vertex="1">
                    <mxGeometry x="165" y="40" width="80" height="60" as="geometry"/>
                </mxCell>
                <mxCell id="392" value="&lt;font color=&quot;#66cc00&quot;&gt;Platform&lt;/font&gt;" style="rounded=1;whiteSpace=wrap;html=1;absoluteArcSize=1;arcSize=14;strokeWidth=2;" parent="378" vertex="1">
                    <mxGeometry x="292.5" y="292.5" width="80" height="60" as="geometry"/>
                </mxCell>
                <mxCell id="410" value="&lt;font style=&quot;font-size: 12px;&quot; color=&quot;#66cc00&quot;&gt;Multi_strategy Live&lt;/font&gt;" style="rounded=1;whiteSpace=wrap;html=1;absoluteArcSize=1;arcSize=14;strokeWidth=2;" parent="378" vertex="1">
                    <mxGeometry x="112.5" y="292.5" width="80" height="60" as="geometry"/>
                </mxCell>
                <mxCell id="411" value="&lt;font style=&quot;font-size: 12px;&quot; color=&quot;#66cc00&quot;&gt;Multi_strategy Multi_user Live&lt;/font&gt;" style="rounded=1;whiteSpace=wrap;html=1;absoluteArcSize=1;arcSize=14;strokeWidth=2;" parent="378" vertex="1">
                    <mxGeometry x="202.5" y="292.5" width="80" height="60" as="geometry"/>
                </mxCell>
                <mxCell id="414" style="edgeStyle=orthogonalEdgeStyle;html=1;exitX=1;exitY=1;exitDx=0;exitDy=0;entryX=0.5;entryY=0;entryDx=0;entryDy=0;fontSize=12;fontColor=#00CC00;" parent="378" source="413" target="385" edge="1">
                    <mxGeometry relative="1" as="geometry"/>
                </mxCell>
                <mxCell id="415" style="edgeStyle=orthogonalEdgeStyle;html=1;exitX=1;exitY=1;exitDx=0;exitDy=0;entryX=0.5;entryY=0;entryDx=0;entryDy=0;fontSize=12;fontColor=#00CC00;" parent="378" source="413" target="387" edge="1">
                    <mxGeometry relative="1" as="geometry"/>
                </mxCell>
                <mxCell id="416" style="edgeStyle=orthogonalEdgeStyle;html=1;exitX=1;exitY=1;exitDx=0;exitDy=0;entryX=0.5;entryY=0;entryDx=0;entryDy=0;fontSize=12;fontColor=#00CC00;" parent="378" source="413" target="389" edge="1">
                    <mxGeometry relative="1" as="geometry"/>
                </mxCell>
                <mxCell id="417" style="edgeStyle=orthogonalEdgeStyle;html=1;exitX=0;exitY=1;exitDx=0;exitDy=0;entryX=0.5;entryY=0;entryDx=0;entryDy=0;fontSize=12;fontColor=#00CC00;" parent="378" source="413" target="411" edge="1">
                    <mxGeometry relative="1" as="geometry"/>
                </mxCell>
                <mxCell id="418" style="edgeStyle=orthogonalEdgeStyle;html=1;exitX=0.5;exitY=1;exitDx=0;exitDy=0;entryX=0.5;entryY=0;entryDx=0;entryDy=0;fontSize=12;fontColor=#00CC00;" parent="378" source="413" target="392" edge="1">
                    <mxGeometry relative="1" as="geometry"/>
                </mxCell>
                <mxCell id="419" style="edgeStyle=orthogonalEdgeStyle;html=1;exitX=0;exitY=1;exitDx=0;exitDy=0;entryX=0.5;entryY=0;entryDx=0;entryDy=0;fontSize=12;fontColor=#00CC00;" parent="378" source="413" target="410" edge="1">
                    <mxGeometry relative="1" as="geometry"/>
                </mxCell>
                <mxCell id="420" style="edgeStyle=orthogonalEdgeStyle;html=1;exitX=0;exitY=1;exitDx=0;exitDy=0;entryX=0.5;entryY=0;entryDx=0;entryDy=0;fontSize=12;fontColor=#00CC00;" parent="378" source="413" target="383" edge="1">
                    <mxGeometry relative="1" as="geometry"/>
                </mxCell>
                <mxCell id="413" value="Which Profile?" style="rhombus;whiteSpace=wrap;html=1;rounded=0;shadow=0;glass=0;sketch=0;fillStyle=auto;fontColor=#66CC00;gradientColor=none;" parent="378" vertex="1">
                    <mxGeometry x="283.75" y="132.5" width="97.5" height="97.5" as="geometry"/>
                </mxCell>
                <mxCell id="393" value="profiles/live/live.py" style="swimlane;whiteSpace=wrap;html=1;rounded=1;dashed=1;dashPattern=12 12;" parent="1" vertex="1">
                    <mxGeometry x="215" y="390" width="490" height="370" as="geometry">
                        <mxRectangle x="-740" y="-70" width="80" height="30" as="alternateBounds"/>
                    </mxGeometry>
                </mxCell>
                <mxCell id="395" value="&lt;font color=&quot;#66cc00&quot;&gt;Read strategy config&lt;/font&gt;" style="rounded=1;whiteSpace=wrap;html=1;absoluteArcSize=1;arcSize=14;strokeWidth=2;" parent="393" vertex="1">
                    <mxGeometry x="25" y="42.5" width="80" height="60" as="geometry"/>
                </mxCell>
                <mxCell id="422" value="&lt;font color=&quot;#66cc00&quot;&gt;Run scheduler&lt;/font&gt;" style="rounded=1;whiteSpace=wrap;html=1;absoluteArcSize=1;arcSize=14;strokeWidth=2;" parent="393" vertex="1">
                    <mxGeometry x="25" y="118" width="80" height="60" as="geometry"/>
                </mxCell>
                <mxCell id="432" value="&lt;font color=&quot;#66cc00&quot;&gt;Check for open positions once&lt;/font&gt;" style="rounded=1;whiteSpace=wrap;html=1;absoluteArcSize=1;arcSize=14;strokeWidth=2;" parent="393" vertex="1">
                    <mxGeometry x="125" y="118" width="80" height="60" as="geometry"/>
                </mxCell>
                <mxCell id="433" value="&lt;font color=&quot;#66cc00&quot;&gt;Run event-attachment module&lt;/font&gt;" style="rounded=1;whiteSpace=wrap;html=1;absoluteArcSize=1;arcSize=14;strokeWidth=2;" parent="393" vertex="1">
                    <mxGeometry x="225" y="118" width="80" height="60" as="geometry"/>
                </mxCell>
                <mxCell id="412" style="edgeStyle=orthogonalEdgeStyle;html=1;exitX=0.5;exitY=1;exitDx=0;exitDy=0;entryX=0.5;entryY=0;entryDx=0;entryDy=0;fontSize=12;fontColor=#00CC00;" parent="1" source="383" target="393" edge="1">
                    <mxGeometry relative="1" as="geometry">
                        <Array as="points">
                            <mxPoint x="190" y="360"/>
                            <mxPoint x="460" y="360"/>
                        </Array>
                    </mxGeometry>
                </mxCell>
                <mxCell id="423" value="scheduler.py" style="swimlane;whiteSpace=wrap;html=1;rounded=1;dashed=1;dashPattern=12 12;" parent="1" vertex="1">
                    <mxGeometry x="-40" y="617.5" width="120" height="292.5" as="geometry">
                        <mxRectangle x="-40" y="617.5" width="80" height="30" as="alternateBounds"/>
                    </mxGeometry>
                </mxCell>
                <mxCell id="430" style="edgeStyle=orthogonalEdgeStyle;html=1;exitX=0.5;exitY=1;exitDx=0;exitDy=0;entryX=0.5;entryY=0;entryDx=0;entryDy=0;fontSize=12;fontColor=#00CC00;" parent="423" source="427" target="428" edge="1">
                    <mxGeometry relative="1" as="geometry"/>
                </mxCell>
                <mxCell id="427" value="&lt;font color=&quot;#66cc00&quot;&gt;Extract working time&lt;/font&gt;" style="rounded=1;whiteSpace=wrap;html=1;absoluteArcSize=1;arcSize=14;strokeWidth=2;" parent="423" vertex="1">
                    <mxGeometry x="20" y="42.5" width="80" height="60" as="geometry"/>
                </mxCell>
                <mxCell id="431" style="edgeStyle=orthogonalEdgeStyle;html=1;exitX=0.5;exitY=1;exitDx=0;exitDy=0;entryX=0.5;entryY=0;entryDx=0;entryDy=0;fontSize=12;fontColor=#00CC00;" parent="423" source="428" target="429" edge="1">
                    <mxGeometry relative="1" as="geometry"/>
                </mxCell>
                <mxCell id="428" value="&lt;font color=&quot;#66cc00&quot;&gt;perform scheduling&lt;/font&gt;" style="rounded=1;whiteSpace=wrap;html=1;absoluteArcSize=1;arcSize=14;strokeWidth=2;" parent="423" vertex="1">
                    <mxGeometry x="20" y="126.25" width="80" height="60" as="geometry"/>
                </mxCell>
                <mxCell id="429" value="&lt;font color=&quot;#66cc00&quot;&gt;Broadcast event on start and end of active times&lt;/font&gt;" style="rounded=1;whiteSpace=wrap;html=1;absoluteArcSize=1;arcSize=14;strokeWidth=2;" parent="423" vertex="1">
                    <mxGeometry x="20" y="212.5" width="80" height="60" as="geometry"/>
                </mxCell>
                <mxCell id="426" style="edgeStyle=orthogonalEdgeStyle;html=1;exitX=0.5;exitY=1;exitDx=0;exitDy=0;entryX=0.5;entryY=0;entryDx=0;entryDy=0;fontSize=12;fontColor=#00CC00;" parent="1" source="422" target="423" edge="1">
                    <mxGeometry relative="1" as="geometry"/>
                </mxCell>
                <mxCell id="435" value="profiles/live/event_attachments.py" style="swimlane;whiteSpace=wrap;html=1;rounded=1;dashed=1;dashPattern=12 12;" parent="1" vertex="1">
                    <mxGeometry x="740" y="617.5" width="700" height="370" as="geometry">
                        <mxRectangle x="-740" y="-70" width="80" height="30" as="alternateBounds"/>
                    </mxGeometry>
                </mxCell>
                <mxCell id="464" style="edgeStyle=orthogonalEdgeStyle;html=1;exitX=0.5;exitY=1;exitDx=0;exitDy=0;entryX=0.5;entryY=0;entryDx=0;entryDy=0;fontSize=12;fontColor=#00CC00;" parent="435" source="441" target="445" edge="1">
                    <mxGeometry relative="1" as="geometry"/>
                </mxCell>
                <mxCell id="441" value="&lt;font color=&quot;#66cc00&quot;&gt;Attach listener functions to start of active time event&lt;/font&gt;" style="rounded=1;whiteSpace=wrap;html=1;absoluteArcSize=1;arcSize=14;strokeWidth=2;" parent="435" vertex="1">
                    <mxGeometry x="70" y="132.5" width="80" height="60" as="geometry"/>
                </mxCell>
                <mxCell id="442" value="&lt;font color=&quot;#66cc00&quot;&gt;Attach listener functions to end of active times event&lt;/font&gt;" style="rounded=1;whiteSpace=wrap;html=1;absoluteArcSize=1;arcSize=14;strokeWidth=2;" parent="435" vertex="1">
                    <mxGeometry x="340" y="132.5" width="80" height="60" as="geometry"/>
                </mxCell>
                <mxCell id="467" style="edgeStyle=orthogonalEdgeStyle;html=1;exitX=0.5;exitY=1;exitDx=0;exitDy=0;entryX=0.5;entryY=0;entryDx=0;entryDy=0;fontSize=12;fontColor=#00CC00;" parent="435" source="443" target="441" edge="1">
                    <mxGeometry relative="1" as="geometry">
                        <mxPoint x="245" y="102.5" as="sourcePoint"/>
                    </mxGeometry>
                </mxCell>
                <mxCell id="468" style="edgeStyle=orthogonalEdgeStyle;html=1;exitX=0.5;exitY=1;exitDx=0;exitDy=0;entryX=0.5;entryY=0;entryDx=0;entryDy=0;fontSize=12;fontColor=#00CC00;" parent="435" source="443" target="442" edge="1">
                    <mxGeometry relative="1" as="geometry">
                        <mxPoint x="245" y="102.5" as="sourcePoint"/>
                    </mxGeometry>
                </mxCell>
                <mxCell id="485" style="edgeStyle=orthogonalEdgeStyle;html=1;exitX=0.5;exitY=1;exitDx=0;exitDy=0;entryX=0.5;entryY=0;entryDx=0;entryDy=0;" edge="1" parent="435" source="443" target="484">
                    <mxGeometry relative="1" as="geometry">
                        <mxPoint x="245" y="102.5" as="sourcePoint"/>
                    </mxGeometry>
                </mxCell>
                <mxCell id="443" value="&lt;font color=&quot;#66cc00&quot;&gt;register events&lt;/font&gt;" style="rounded=1;whiteSpace=wrap;html=1;absoluteArcSize=1;arcSize=14;strokeWidth=2;" parent="435" vertex="1">
                    <mxGeometry x="205" y="35" width="80" height="60" as="geometry"/>
                </mxCell>
                <mxCell id="445" value="&lt;font color=&quot;#66cc00&quot;&gt;start fetching market data&lt;/font&gt;" style="rounded=1;whiteSpace=wrap;html=1;absoluteArcSize=1;arcSize=14;strokeWidth=2;" parent="435" vertex="1">
                    <mxGeometry x="70" y="220" width="80" height="60" as="geometry"/>
                </mxCell>
                <mxCell id="446" value="&lt;font color=&quot;#66cc00&quot;&gt;start fetching market data&lt;/font&gt;" style="rounded=1;whiteSpace=wrap;html=1;absoluteArcSize=1;arcSize=14;strokeWidth=2;" parent="435" vertex="1">
                    <mxGeometry x="205" y="220" width="80" height="60" as="geometry"/>
                </mxCell>
                <mxCell id="489" style="edgeStyle=orthogonalEdgeStyle;html=1;exitX=0.5;exitY=1;exitDx=0;exitDy=0;entryX=0.5;entryY=0;entryDx=0;entryDy=0;" edge="1" parent="435" source="484" target="486">
                    <mxGeometry relative="1" as="geometry"/>
                </mxCell>
                <mxCell id="484" value="&lt;font color=&quot;#66cc00&quot;&gt;Attach listeners to new market data event&lt;/font&gt;" style="rounded=1;whiteSpace=wrap;html=1;absoluteArcSize=1;arcSize=14;strokeWidth=2;" vertex="1" parent="435">
                    <mxGeometry x="490" y="132.5" width="80" height="60" as="geometry"/>
                </mxCell>
                <mxCell id="486" value="&lt;font color=&quot;#66cc00&quot;&gt;run market-validator&lt;/font&gt;" style="rounded=1;whiteSpace=wrap;html=1;absoluteArcSize=1;arcSize=14;strokeWidth=2;" vertex="1" parent="435">
                    <mxGeometry x="490" y="220" width="80" height="60" as="geometry"/>
                </mxCell>
                <mxCell id="488" style="edgeStyle=orthogonalEdgeStyle;html=1;exitX=0.5;exitY=1;exitDx=0;exitDy=0;entryX=0.5;entryY=0;entryDx=0;entryDy=0;" edge="1" parent="435" source="487" target="446">
                    <mxGeometry relative="1" as="geometry"/>
                </mxCell>
                <mxCell id="487" value="&lt;font color=&quot;#66cc00&quot;&gt;Attach listeners to open-positions-exist event&lt;/font&gt;" style="rounded=1;whiteSpace=wrap;html=1;absoluteArcSize=1;arcSize=14;strokeWidth=2;" vertex="1" parent="435">
                    <mxGeometry x="205" y="132.5" width="80" height="60" as="geometry"/>
                </mxCell>
                <mxCell id="500" value="&lt;font color=&quot;#66cc00&quot;&gt;Attach listeners to market is valid event&lt;/font&gt;" style="rounded=1;whiteSpace=wrap;html=1;absoluteArcSize=1;arcSize=14;strokeWidth=2;" vertex="1" parent="435">
                    <mxGeometry x="600" y="132.5" width="80" height="60" as="geometry"/>
                </mxCell>
                <mxCell id="501" value="&lt;font color=&quot;#66cc00&quot;&gt;run portfolio manager&lt;/font&gt;" style="rounded=1;whiteSpace=wrap;html=1;absoluteArcSize=1;arcSize=14;strokeWidth=2;" vertex="1" parent="435">
                    <mxGeometry x="600" y="220" width="80" height="60" as="geometry"/>
                </mxCell>
                <mxCell id="499" style="edgeStyle=orthogonalEdgeStyle;html=1;exitX=0.5;exitY=1;exitDx=0;exitDy=0;entryX=0.5;entryY=0;entryDx=0;entryDy=0;" edge="1" parent="435" source="500" target="501">
                    <mxGeometry relative="1" as="geometry"/>
                </mxCell>
                <mxCell id="444" style="edgeStyle=orthogonalEdgeStyle;html=1;exitX=0.5;exitY=1;exitDx=0;exitDy=0;entryX=0.5;entryY=0;entryDx=0;entryDy=0;fontSize=12;fontColor=#00CC00;" parent="1" source="433" target="435" edge="1">
                    <mxGeometry relative="1" as="geometry">
                        <Array as="points">
                            <mxPoint x="480" y="590"/>
                            <mxPoint x="1090" y="590"/>
                        </Array>
                    </mxGeometry>
                </mxCell>
                <mxCell id="448" value="data_processor.py" style="swimlane;whiteSpace=wrap;html=1;rounded=1;dashed=1;dashPattern=12 12;" parent="1" vertex="1">
                    <mxGeometry x="725" y="1060" width="520" height="510" as="geometry">
                        <mxRectangle x="-1050" y="500" width="80" height="30" as="alternateBounds"/>
                    </mxGeometry>
                </mxCell>
                <mxCell id="449" style="edgeStyle=orthogonalEdgeStyle;html=1;exitX=0.5;exitY=1;exitDx=0;exitDy=0;entryX=0.5;entryY=0;entryDx=0;entryDy=0;fontColor=#66CC00;" parent="448" source="450" target="451" edge="1">
                    <mxGeometry relative="1" as="geometry"/>
                </mxCell>
                <mxCell id="461" style="edgeStyle=orthogonalEdgeStyle;html=1;exitX=0.5;exitY=1;exitDx=0;exitDy=0;entryX=0.5;entryY=0;entryDx=0;entryDy=0;fontSize=12;fontColor=#00CC00;" parent="448" source="450" target="458" edge="1">
                    <mxGeometry relative="1" as="geometry"/>
                </mxCell>
                <mxCell id="450" value="&lt;font color=&quot;#66cc00&quot;&gt;Start fetching market data&lt;/font&gt;" style="rounded=1;whiteSpace=wrap;html=1;absoluteArcSize=1;arcSize=14;strokeWidth=2;" parent="448" vertex="1">
                    <mxGeometry x="315" y="258.75" width="80" height="60" as="geometry"/>
                </mxCell>
                <mxCell id="451" value="&lt;font color=&quot;#66cc00&quot;&gt;Send event on candle close for each timeframe&lt;/font&gt;" style="rounded=1;whiteSpace=wrap;html=1;absoluteArcSize=1;arcSize=14;strokeWidth=2;" parent="448" vertex="1">
                    <mxGeometry x="365" y="341.25" width="80" height="60" as="geometry"/>
                </mxCell>
                <mxCell id="452" style="edgeStyle=orthogonalEdgeStyle;html=1;exitX=0.5;exitY=1;exitDx=0;exitDy=0;entryX=0.5;entryY=0;entryDx=0;entryDy=0;fontColor=#66CC00;" parent="448" source="453" target="454" edge="1">
                    <mxGeometry relative="1" as="geometry"/>
                </mxCell>
                <mxCell id="453" value="&lt;font color=&quot;#66cc00&quot;&gt;constantly fetching Open Positions&lt;/font&gt;" style="rounded=1;whiteSpace=wrap;html=1;absoluteArcSize=1;arcSize=14;strokeWidth=2;" parent="448" vertex="1">
                    <mxGeometry x="75" y="258.75" width="80" height="60" as="geometry"/>
                </mxCell>
                <mxCell id="454" value="&lt;font color=&quot;#66cc00&quot;&gt;Send open-positions event&lt;/font&gt;" style="rounded=1;whiteSpace=wrap;html=1;absoluteArcSize=1;arcSize=14;strokeWidth=2;" parent="448" vertex="1">
                    <mxGeometry x="75" y="341.25" width="80" height="60" as="geometry"/>
                </mxCell>
                <mxCell id="459" value="No" style="edgeStyle=orthogonalEdgeStyle;html=1;exitX=1;exitY=1;exitDx=0;exitDy=0;entryX=0.5;entryY=0;entryDx=0;entryDy=0;fontSize=12;fontColor=#00CC00;" parent="448" source="455" target="450" edge="1">
                    <mxGeometry relative="1" as="geometry"/>
                </mxCell>
                <mxCell id="460" value="Yes" style="edgeStyle=orthogonalEdgeStyle;html=1;exitX=0;exitY=1;exitDx=0;exitDy=0;entryX=0.5;entryY=0;entryDx=0;entryDy=0;fontSize=12;fontColor=#00CC00;" parent="448" source="455" target="457" edge="1">
                    <mxGeometry relative="1" as="geometry"/>
                </mxCell>
                <mxCell id="455" value="Is market data already fetching for that pair-timeframe?" style="rhombus;whiteSpace=wrap;html=1;rounded=0;shadow=0;glass=0;sketch=0;fillStyle=auto;fontColor=#66CC00;gradientColor=none;" parent="448" vertex="1">
                    <mxGeometry x="248.12" y="118.75" width="113.75" height="113.75" as="geometry"/>
                </mxCell>
                <mxCell id="466" style="edgeStyle=orthogonalEdgeStyle;html=1;exitX=0.5;exitY=1;exitDx=0;exitDy=0;entryX=0.5;entryY=0;entryDx=0;entryDy=0;fontSize=12;fontColor=#00CC00;" parent="448" source="456" target="455" edge="1">
                    <mxGeometry relative="1" as="geometry"/>
                </mxCell>
                <mxCell id="456" value="On &quot;start fetching market data&quot; listener call for each pair-timeframe:" style="shape=process;whiteSpace=wrap;html=1;backgroundOutline=1;fontSize=12;fontColor=#00CC00;" parent="448" vertex="1">
                    <mxGeometry x="232.49" y="38.75" width="145" height="60" as="geometry"/>
                </mxCell>
                <mxCell id="457" value="&lt;font color=&quot;#66cc00&quot;&gt;None&lt;/font&gt;" style="rounded=1;whiteSpace=wrap;html=1;absoluteArcSize=1;arcSize=14;strokeWidth=2;" parent="448" vertex="1">
                    <mxGeometry x="215" y="258.75" width="80" height="60" as="geometry"/>
                </mxCell>
                <mxCell id="458" value="&lt;font color=&quot;#66cc00&quot;&gt;Broadcast event on new-market-data&lt;/font&gt;" style="rounded=1;whiteSpace=wrap;html=1;absoluteArcSize=1;arcSize=14;strokeWidth=2;" parent="448" vertex="1">
                    <mxGeometry x="265" y="341.25" width="80" height="60" as="geometry"/>
                </mxCell>
                <mxCell id="469" value="trading/strategy/market_validator.py" style="swimlane;whiteSpace=wrap;html=1;rounded=1;dashed=1;dashPattern=12 12;" vertex="1" parent="1">
                    <mxGeometry x="857.5" y="1600" width="255" height="467.5" as="geometry">
                        <mxRectangle x="-1050" y="500" width="80" height="30" as="alternateBounds"/>
                    </mxGeometry>
                </mxCell>
                <mxCell id="495" style="edgeStyle=orthogonalEdgeStyle;html=1;exitX=0.5;exitY=1;exitDx=0;exitDy=0;entryX=0.5;entryY=0;entryDx=0;entryDy=0;" edge="1" parent="469" source="490" target="491">
                    <mxGeometry relative="1" as="geometry"/>
                </mxCell>
                <mxCell id="490" value="&lt;span style=&quot;color: rgb(0, 204, 0); font-family: Helvetica; font-size: 12px; font-style: normal; font-variant-ligatures: normal; font-variant-caps: normal; font-weight: 400; letter-spacing: normal; orphans: 2; text-align: center; text-indent: 0px; text-transform: none; widows: 2; word-spacing: 0px; -webkit-text-stroke-width: 0px; background-color: rgb(24, 20, 29); text-decoration-thickness: initial; text-decoration-style: initial; text-decoration-color: initial; float: none; display: inline !important;&quot;&gt;On &quot;run market validator&quot; listener call:&lt;/span&gt;" style="shape=process;whiteSpace=wrap;html=1;backgroundOutline=1;" vertex="1" parent="469">
                    <mxGeometry x="67.5" y="47.5" width="120" height="60" as="geometry"/>
                </mxCell>
                <mxCell id="496" style="edgeStyle=orthogonalEdgeStyle;html=1;exitX=0.5;exitY=1;exitDx=0;exitDy=0;entryX=0.5;entryY=0;entryDx=0;entryDy=0;" edge="1" parent="469" source="491" target="492">
                    <mxGeometry relative="1" as="geometry"/>
                </mxCell>
                <mxCell id="491" value="&lt;font color=&quot;#66cc00&quot;&gt;perform market validations&lt;/font&gt;" style="rounded=1;whiteSpace=wrap;html=1;absoluteArcSize=1;arcSize=14;strokeWidth=2;" vertex="1" parent="469">
                    <mxGeometry x="87.5" y="137.5" width="80" height="60" as="geometry"/>
                </mxCell>
                <mxCell id="497" value="Yes" style="edgeStyle=orthogonalEdgeStyle;html=1;exitX=1;exitY=1;exitDx=0;exitDy=0;entryX=0.5;entryY=0;entryDx=0;entryDy=0;" edge="1" parent="469" source="492" target="493">
                    <mxGeometry relative="1" as="geometry"/>
                </mxCell>
                <mxCell id="498" value="No" style="edgeStyle=orthogonalEdgeStyle;html=1;exitX=0;exitY=1;exitDx=0;exitDy=0;entryX=0.5;entryY=0;entryDx=0;entryDy=0;" edge="1" parent="469" source="492" target="494">
                    <mxGeometry relative="1" as="geometry"/>
                </mxCell>
                <mxCell id="492" value="is market valid?" style="rhombus;whiteSpace=wrap;html=1;rounded=0;shadow=0;glass=0;sketch=0;fillStyle=auto;fontColor=#66CC00;gradientColor=none;" vertex="1" parent="469">
                    <mxGeometry x="78.75" y="227.5" width="97.5" height="97.5" as="geometry"/>
                </mxCell>
                <mxCell id="493" value="&lt;font color=&quot;#66cc00&quot;&gt;Broadcast market is valid event&lt;/font&gt;" style="rounded=1;whiteSpace=wrap;html=1;absoluteArcSize=1;arcSize=14;strokeWidth=2;" vertex="1" parent="469">
                    <mxGeometry x="152.5" y="367.5" width="80" height="60" as="geometry"/>
                </mxCell>
                <mxCell id="494" value="&lt;font color=&quot;#66cc00&quot;&gt;Broadcast market is not valid event&lt;/font&gt;" style="rounded=1;whiteSpace=wrap;html=1;absoluteArcSize=1;arcSize=14;strokeWidth=2;" vertex="1" parent="469">
                    <mxGeometry x="22.5" y="367.5" width="80" height="60" as="geometry"/>
                </mxCell>
                <mxCell id="502" value="trading/strategy/portfolio_manager.py" style="swimlane;whiteSpace=wrap;html=1;rounded=1;dashed=1;dashPattern=12 12;" vertex="1" parent="1">
                    <mxGeometry x="1150" y="1600" width="390" height="710" as="geometry">
                        <mxRectangle x="-740" y="-70" width="80" height="30" as="alternateBounds"/>
                    </mxGeometry>
                </mxCell>
                <mxCell id="503" value="&lt;font color=&quot;#66cc00&quot;&gt;Get current assets exposure&lt;/font&gt;" style="rounded=1;whiteSpace=wrap;html=1;absoluteArcSize=1;arcSize=14;strokeWidth=2;" vertex="1" parent="502">
                    <mxGeometry x="110" y="400" width="80" height="60" as="geometry"/>
                </mxCell>
                <mxCell id="504" style="edgeStyle=orthogonalEdgeStyle;html=1;exitX=0.5;exitY=1;exitDx=0;exitDy=0;entryX=0.5;entryY=0;entryDx=0;entryDy=0;fontColor=#66CC00;" edge="1" parent="502" source="505" target="507">
                    <mxGeometry relative="1" as="geometry">
                        <mxPoint x="210" y="480.0000000000002" as="targetPoint"/>
                        <Array as="points">
                            <mxPoint x="270" y="470"/>
                            <mxPoint x="210" y="470"/>
                        </Array>
                    </mxGeometry>
                </mxCell>
                <mxCell id="505" value="&lt;font color=&quot;#66cc00&quot;&gt;Calculate max allowed exposure&lt;/font&gt;" style="rounded=1;whiteSpace=wrap;html=1;absoluteArcSize=1;arcSize=14;strokeWidth=2;" vertex="1" parent="502">
                    <mxGeometry x="230" y="400" width="80" height="60" as="geometry"/>
                </mxCell>
                <mxCell id="506" value="yes" style="edgeStyle=orthogonalEdgeStyle;html=1;exitX=1;exitY=1;exitDx=0;exitDy=0;entryX=0.5;entryY=0;entryDx=0;entryDy=0;fontColor=#66CC00;" edge="1" parent="502" source="507" target="508">
                    <mxGeometry relative="1" as="geometry">
                        <mxPoint x="250" y="570" as="sourcePoint"/>
                    </mxGeometry>
                </mxCell>
                <mxCell id="507" value="possible to engage more asset?" style="rhombus;whiteSpace=wrap;html=1;rounded=0;shadow=0;glass=0;sketch=0;fillStyle=auto;fontColor=#66CC00;gradientColor=none;" vertex="1" parent="502">
                    <mxGeometry x="170" y="490" width="80" height="80" as="geometry"/>
                </mxCell>
                <mxCell id="508" value="&lt;font color=&quot;#66cc00&quot;&gt;How much more can engage?&lt;/font&gt;" style="rounded=1;whiteSpace=wrap;html=1;absoluteArcSize=1;arcSize=14;strokeWidth=2;" vertex="1" parent="502">
                    <mxGeometry x="230" y="600" width="80" height="60" as="geometry"/>
                </mxCell>
                <mxCell id="509" style="edgeStyle=orthogonalEdgeStyle;html=1;exitX=0.5;exitY=1;exitDx=0;exitDy=0;fontColor=#66CC00;entryX=0.5;entryY=0;entryDx=0;entryDy=0;" edge="1" parent="502" source="503" target="507">
                    <mxGeometry relative="1" as="geometry">
                        <mxPoint x="210" y="480.0000000000002" as="targetPoint"/>
                        <Array as="points">
                            <mxPoint x="150" y="470"/>
                            <mxPoint x="210" y="470"/>
                        </Array>
                    </mxGeometry>
                </mxCell>
                <mxCell id="513" style="edgeStyle=orthogonalEdgeStyle;html=1;exitX=0.5;exitY=1;exitDx=0;exitDy=0;entryX=0.5;entryY=0;entryDx=0;entryDy=0;" edge="1" parent="502" source="510" target="505">
                    <mxGeometry relative="1" as="geometry"/>
                </mxCell>
                <mxCell id="510" value="&lt;font color=&quot;#66cc00&quot;&gt;Fetch users wallets' balance&lt;/font&gt;" style="rounded=1;whiteSpace=wrap;html=1;absoluteArcSize=1;arcSize=14;strokeWidth=2;" vertex="1" parent="502">
                    <mxGeometry x="230" y="270" width="80" height="60" as="geometry"/>
                </mxCell>
                <mxCell id="512" style="edgeStyle=orthogonalEdgeStyle;html=1;exitX=0.5;exitY=1;exitDx=0;exitDy=0;entryX=0.5;entryY=0;entryDx=0;entryDy=0;" edge="1" parent="502" source="511" target="503">
                    <mxGeometry relative="1" as="geometry"/>
                </mxCell>
                <mxCell id="511" value="&lt;font color=&quot;#66cc00&quot;&gt;fetch all open-positions&lt;/font&gt;" style="rounded=1;whiteSpace=wrap;html=1;absoluteArcSize=1;arcSize=14;strokeWidth=2;" vertex="1" parent="502">
                    <mxGeometry x="110" y="270" width="80" height="60" as="geometry"/>
                </mxCell>
                <mxCell id="514" value="is now in active times?" style="rhombus;whiteSpace=wrap;html=1;rounded=0;shadow=0;glass=0;sketch=0;fillStyle=auto;fontColor=#66CC00;gradientColor=none;" vertex="1" parent="502">
                    <mxGeometry x="146.25" y="40" width="97.5" height="97.5" as="geometry"/>
                </mxCell>
                <mxCell id="515" value="&lt;font color=&quot;#66cc00&quot;&gt;Fetch users wallets' balance&lt;/font&gt;" style="rounded=1;whiteSpace=wrap;html=1;absoluteArcSize=1;arcSize=14;strokeWidth=2;" vertex="1" parent="502">
                    <mxGeometry x="220" y="170" width="80" height="60" as="geometry"/>
                </mxCell>
                <mxCell id="516" value="&lt;font color=&quot;#66cc00&quot;&gt;Fetch users wallets' balance&lt;/font&gt;" style="rounded=1;whiteSpace=wrap;html=1;absoluteArcSize=1;arcSize=14;strokeWidth=2;" vertex="1" parent="502">
                    <mxGeometry x="90" y="170" width="80" height="60" as="geometry"/>
                </mxCell>
            </root>
        </mxGraphModel>
    </diagram>
</mxfile>